<svg xmlns="http://www.w3.org/2000/svg" xmlns:xlink="http://www.w3.org/1999/xlink" zoomAndPan="magnify" preserveAspectRatio="xMidYMid meet" version="1.0" viewBox="63.07 134.96 249.66 109.8"><defs><g/></defs><g fill="#ff00ff" fill-opacity="1"><g transform="translate(75.927003, 205.374186)"><g><path d="M 4.015625 -21.015625 L 4.015625 -23.1875 L 30.5625 -37.46875 L 30.5625 -33.34375 L 9.78125 -22.078125 L 30.5625 -10.9375 L 30.5625 -6.796875 Z M 4.015625 -21.015625 "/></g></g></g><g fill="#ff00ff" fill-opacity="1"><g transform="translate(110.500552, 205.374186)"><g><path d="M 12.5 -14.765625 L 10.140625 -8.28125 C 9.960938 -7.789062 9.820312 -7.304688 9.71875 -6.828125 C 9.625 -6.359375 9.578125 -5.953125 9.578125 -5.609375 C 9.578125 -4.566406 9.910156 -3.800781 10.578125 -3.3125 C 11.253906 -2.832031 12.285156 -2.59375 13.671875 -2.59375 L 15.09375 -2.59375 L 15.09375 0 L 0 0 L 0 -2.59375 L 1.171875 -2.59375 C 1.773438 -2.59375 2.289062 -2.65625 2.71875 -2.78125 C 3.144531 -2.914062 3.523438 -3.164062 3.859375 -3.53125 C 4.203125 -3.894531 4.53125 -4.390625 4.84375 -5.015625 C 5.15625 -5.640625 5.503906 -6.441406 5.890625 -7.421875 L 19.59375 -44.140625 L 24.421875 -44.140625 L 38.40625 -5.890625 C 38.644531 -5.242188 38.890625 -4.707031 39.140625 -4.28125 C 39.398438 -3.863281 39.703125 -3.53125 40.046875 -3.28125 C 40.390625 -3.03125 40.78125 -2.851562 41.21875 -2.75 C 41.664062 -2.644531 42.191406 -2.59375 42.796875 -2.59375 L 43.609375 -2.59375 L 43.609375 0 L 26.609375 0 L 26.609375 -2.59375 L 28.015625 -2.59375 C 30.492188 -2.59375 31.734375 -3.582031 31.734375 -5.5625 C 31.734375 -5.894531 31.6875 -6.242188 31.59375 -6.609375 C 31.507812 -6.972656 31.382812 -7.382812 31.21875 -7.84375 L 28.75 -14.765625 Z M 23.796875 -28.6875 C 23.148438 -30.519531 22.5625 -32.234375 22.03125 -33.828125 C 21.5 -35.429688 21.0625 -36.976562 20.71875 -38.46875 C 20.570312 -37.726562 20.40625 -37.007812 20.21875 -36.3125 C 20.03125 -35.613281 19.820312 -34.898438 19.59375 -34.171875 C 19.375 -33.453125 19.125 -32.691406 18.84375 -31.890625 C 18.5625 -31.097656 18.238281 -30.222656 17.875 -29.265625 L 13.671875 -17.875 L 27.625 -17.875 Z M 23.796875 -28.6875 "/></g></g></g><g fill="#ff00ff" fill-opacity="1"><g transform="translate(154.10247, 205.374186)"><g><path d="M 32.578125 -6.734375 C 32.578125 -5.828125 32.710938 -5.097656 32.984375 -4.546875 C 33.253906 -3.992188 33.617188 -3.578125 34.078125 -3.296875 C 34.546875 -3.015625 35.085938 -2.828125 35.703125 -2.734375 C 36.316406 -2.640625 36.96875 -2.59375 37.65625 -2.59375 L 37.84375 -2.59375 L 37.84375 0 L 28.015625 0 L 27.203125 -5.015625 L 26.90625 -5.015625 C 26.28125 -3.847656 25.585938 -2.898438 24.828125 -2.171875 C 24.078125 -1.453125 23.28125 -0.882812 22.4375 -0.46875 C 21.59375 -0.0507812 20.707031 0.226562 19.78125 0.375 C 18.851562 0.53125 17.882812 0.609375 16.875 0.609375 C 15.25 0.609375 13.800781 0.378906 12.53125 -0.078125 C 11.257812 -0.546875 10.191406 -1.273438 9.328125 -2.265625 C 8.460938 -3.253906 7.800781 -4.507812 7.34375 -6.03125 C 6.894531 -7.5625 6.671875 -9.382812 6.671875 -11.5 L 6.671875 -26.328125 C 6.671875 -27.234375 6.535156 -27.960938 6.265625 -28.515625 C 5.992188 -29.078125 5.625 -29.503906 5.15625 -29.796875 C 4.695312 -30.097656 4.160156 -30.300781 3.546875 -30.40625 C 2.929688 -30.507812 2.28125 -30.5625 1.59375 -30.5625 L 1.421875 -30.5625 L 1.421875 -33.15625 L 12.5 -33.15625 L 12.5 -11.8125 C 12.5 -10.457031 12.601562 -9.253906 12.8125 -8.203125 C 13.03125 -7.160156 13.382812 -6.273438 13.875 -5.546875 C 14.363281 -4.828125 15.023438 -4.28125 15.859375 -3.90625 C 16.703125 -3.539062 17.75 -3.359375 19 -3.359375 C 20.363281 -3.359375 21.53125 -3.597656 22.5 -4.078125 C 23.476562 -4.554688 24.285156 -5.234375 24.921875 -6.109375 C 25.554688 -6.984375 26.023438 -8.035156 26.328125 -9.265625 C 26.628906 -10.492188 26.78125 -11.851562 26.78125 -13.34375 L 26.78125 -26.09375 C 26.78125 -27.0625 26.644531 -27.84375 26.375 -28.4375 C 26.101562 -29.03125 25.738281 -29.476562 25.28125 -29.78125 C 24.832031 -30.09375 24.300781 -30.300781 23.6875 -30.40625 C 23.070312 -30.507812 22.414062 -30.5625 21.71875 -30.5625 L 21.53125 -30.5625 L 21.53125 -33.15625 L 32.578125 -33.15625 Z M 32.578125 -6.734375 "/></g></g></g><g fill="#ff00ff" fill-opacity="1"><g transform="translate(193.356274, 205.374186)"><g><path d="M 18.359375 -2.59375 L 18.359375 0 L 1.71875 0 L 1.71875 -2.59375 L 2.53125 -2.59375 C 3.238281 -2.59375 3.882812 -2.644531 4.46875 -2.75 C 5.050781 -2.851562 5.550781 -3.054688 5.96875 -3.359375 C 6.394531 -3.671875 6.722656 -4.117188 6.953125 -4.703125 C 7.191406 -5.296875 7.3125 -6.070312 7.3125 -7.03125 L 7.3125 -26.328125 C 7.3125 -27.234375 7.1875 -27.960938 6.9375 -28.515625 C 6.695312 -29.078125 6.363281 -29.503906 5.9375 -29.796875 C 5.519531 -30.097656 5.019531 -30.300781 4.4375 -30.40625 C 3.851562 -30.507812 3.21875 -30.5625 2.53125 -30.5625 L 2.359375 -30.5625 L 2.359375 -33.15625 L 12.046875 -33.15625 L 12.859375 -28.140625 L 13.171875 -28.140625 C 13.796875 -29.285156 14.445312 -30.222656 15.125 -30.953125 C 15.8125 -31.691406 16.539062 -32.269531 17.3125 -32.6875 C 18.09375 -33.101562 18.910156 -33.382812 19.765625 -33.53125 C 20.617188 -33.6875 21.53125 -33.765625 22.5 -33.765625 C 23.5 -33.765625 24.453125 -33.660156 25.359375 -33.453125 C 26.265625 -33.253906 27.101562 -32.929688 27.875 -32.484375 C 28.65625 -32.046875 29.351562 -31.46875 29.96875 -30.75 C 30.582031 -30.039062 31.082031 -29.171875 31.46875 -28.140625 L 31.984375 -28.140625 C 32.609375 -29.285156 33.28125 -30.222656 34 -30.953125 C 34.726562 -31.691406 35.5 -32.269531 36.3125 -32.6875 C 37.125 -33.101562 37.976562 -33.382812 38.875 -33.53125 C 39.769531 -33.6875 40.703125 -33.765625 41.671875 -33.765625 C 43.242188 -33.765625 44.648438 -33.523438 45.890625 -33.046875 C 47.140625 -32.578125 48.195312 -31.851562 49.0625 -30.875 C 49.9375 -29.894531 50.601562 -28.640625 51.0625 -27.109375 C 51.53125 -25.585938 51.765625 -23.769531 51.765625 -21.65625 L 51.765625 -7.03125 C 51.765625 -6.070312 51.882812 -5.296875 52.125 -4.703125 C 52.363281 -4.117188 52.691406 -3.671875 53.109375 -3.359375 C 53.535156 -3.054688 54.039062 -2.851562 54.625 -2.75 C 55.207031 -2.644531 55.84375 -2.59375 56.53125 -2.59375 L 56.703125 -2.59375 L 56.703125 0 L 45.953125 0 L 45.953125 -21.34375 C 45.953125 -22.695312 45.835938 -23.894531 45.609375 -24.9375 C 45.378906 -25.988281 45.003906 -26.875 44.484375 -27.59375 C 43.972656 -28.320312 43.304688 -28.867188 42.484375 -29.234375 C 41.660156 -29.609375 40.65625 -29.796875 39.46875 -29.796875 C 38.175781 -29.796875 37.09375 -29.550781 36.21875 -29.0625 C 35.34375 -28.570312 34.632812 -27.898438 34.09375 -27.046875 C 33.550781 -26.203125 33.160156 -25.226562 32.921875 -24.125 C 32.691406 -23.019531 32.578125 -21.84375 32.578125 -20.59375 L 32.578125 -7.03125 C 32.578125 -6.070312 32.695312 -5.296875 32.9375 -4.703125 C 33.1875 -4.117188 33.519531 -3.671875 33.9375 -3.359375 C 34.363281 -3.054688 34.867188 -2.851562 35.453125 -2.75 C 36.035156 -2.644531 36.671875 -2.59375 37.359375 -2.59375 L 37.53125 -2.59375 L 37.53125 0 L 26.78125 0 L 26.78125 -21.34375 C 26.78125 -22.695312 26.664062 -23.894531 26.4375 -24.9375 C 26.207031 -25.988281 25.832031 -26.875 25.3125 -27.59375 C 24.800781 -28.320312 24.132812 -28.867188 23.3125 -29.234375 C 22.488281 -29.609375 21.484375 -29.796875 20.296875 -29.796875 C 18.941406 -29.796875 17.804688 -29.523438 16.890625 -28.984375 C 15.972656 -28.441406 15.234375 -27.707031 14.671875 -26.78125 C 14.109375 -25.851562 13.707031 -24.785156 13.46875 -23.578125 C 13.226562 -22.367188 13.109375 -21.101562 13.109375 -19.78125 L 13.109375 -6.734375 C 13.109375 -5.828125 13.242188 -5.097656 13.515625 -4.546875 C 13.785156 -3.992188 14.148438 -3.578125 14.609375 -3.296875 C 15.078125 -3.015625 15.617188 -2.828125 16.234375 -2.734375 C 16.847656 -2.640625 17.492188 -2.59375 18.171875 -2.59375 Z M 18.359375 -2.59375 "/></g></g></g><g fill="#ff00ff" fill-opacity="1"><g transform="translate(251.784058, 205.374186)"><g><path d="M 3.65625 7.484375 L 0 7.484375 L 14.21875 -46.984375 L 17.8125 -46.984375 Z M 3.65625 7.484375 "/></g></g></g><g fill="#ff00ff" fill-opacity="1"><g transform="translate(269.599246, 205.374186)"><g><path d="M 4.015625 -6.796875 L 4.015625 -10.9375 L 24.796875 -22.078125 L 4.015625 -33.34375 L 4.015625 -37.46875 L 30.5625 -23.1875 L 30.5625 -21.015625 Z M 4.015625 -6.796875 "/></g></g></g><g fill="#00ffff" fill-opacity="1"><g transform="translate(70.824522, 205.374186)"><g><path d="M 4.015625 -21.015625 L 4.015625 -23.1875 L 30.5625 -37.46875 L 30.5625 -33.34375 L 9.78125 -22.078125 L 30.5625 -10.9375 L 30.5625 -6.796875 Z M 4.015625 -21.015625 "/></g></g></g><g fill="#00ffff" fill-opacity="1"><g transform="translate(105.39807, 205.374186)"><g><path d="M 12.5 -14.765625 L 10.140625 -8.28125 C 9.960938 -7.789062 9.820312 -7.304688 9.71875 -6.828125 C 9.625 -6.359375 9.578125 -5.953125 9.578125 -5.609375 C 9.578125 -4.566406 9.910156 -3.800781 10.578125 -3.3125 C 11.253906 -2.832031 12.285156 -2.59375 13.671875 -2.59375 L 15.09375 -2.59375 L 15.09375 0 L 0 0 L 0 -2.59375 L 1.171875 -2.59375 C 1.773438 -2.59375 2.289062 -2.65625 2.71875 -2.78125 C 3.144531 -2.914062 3.523438 -3.164062 3.859375 -3.53125 C 4.203125 -3.894531 4.53125 -4.390625 4.84375 -5.015625 C 5.15625 -5.640625 5.503906 -6.441406 5.890625 -7.421875 L 19.59375 -44.140625 L 24.421875 -44.140625 L 38.40625 -5.890625 C 38.644531 -5.242188 38.890625 -4.707031 39.140625 -4.28125 C 39.398438 -3.863281 39.703125 -3.53125 40.046875 -3.28125 C 40.390625 -3.03125 40.78125 -2.851562 41.21875 -2.75 C 41.664062 -2.644531 42.191406 -2.59375 42.796875 -2.59375 L 43.609375 -2.59375 L 43.609375 0 L 26.609375 0 L 26.609375 -2.59375 L 28.015625 -2.59375 C 30.492188 -2.59375 31.734375 -3.582031 31.734375 -5.5625 C 31.734375 -5.894531 31.6875 -6.242188 31.59375 -6.609375 C 31.507812 -6.972656 31.382812 -7.382812 31.21875 -7.84375 L 28.75 -14.765625 Z M 23.796875 -28.6875 C 23.148438 -30.519531 22.5625 -32.234375 22.03125 -33.828125 C 21.5 -35.429688 21.0625 -36.976562 20.71875 -38.46875 C 20.570312 -37.726562 20.40625 -37.007812 20.21875 -36.3125 C 20.03125 -35.613281 19.820312 -34.898438 19.59375 -34.171875 C 19.375 -33.453125 19.125 -32.691406 18.84375 -31.890625 C 18.5625 -31.097656 18.238281 -30.222656 17.875 -29.265625 L 13.671875 -17.875 L 27.625 -17.875 Z M 23.796875 -28.6875 "/></g></g></g><g fill="#00ffff" fill-opacity="1"><g transform="translate(148.999989, 205.374186)"><g><path d="M 32.578125 -6.734375 C 32.578125 -5.828125 32.710938 -5.097656 32.984375 -4.546875 C 33.253906 -3.992188 33.617188 -3.578125 34.078125 -3.296875 C 34.546875 -3.015625 35.085938 -2.828125 35.703125 -2.734375 C 36.316406 -2.640625 36.96875 -2.59375 37.65625 -2.59375 L 37.84375 -2.59375 L 37.84375 0 L 28.015625 0 L 27.203125 -5.015625 L 26.90625 -5.015625 C 26.28125 -3.847656 25.585938 -2.898438 24.828125 -2.171875 C 24.078125 -1.453125 23.28125 -0.882812 22.4375 -0.46875 C 21.59375 -0.0507812 20.707031 0.226562 19.78125 0.375 C 18.851562 0.53125 17.882812 0.609375 16.875 0.609375 C 15.25 0.609375 13.800781 0.378906 12.53125 -0.078125 C 11.257812 -0.546875 10.191406 -1.273438 9.328125 -2.265625 C 8.460938 -3.253906 7.800781 -4.507812 7.34375 -6.03125 C 6.894531 -7.5625 6.671875 -9.382812 6.671875 -11.5 L 6.671875 -26.328125 C 6.671875 -27.234375 6.535156 -27.960938 6.265625 -28.515625 C 5.992188 -29.078125 5.625 -29.503906 5.15625 -29.796875 C 4.695312 -30.097656 4.160156 -30.300781 3.546875 -30.40625 C 2.929688 -30.507812 2.28125 -30.5625 1.59375 -30.5625 L 1.421875 -30.5625 L 1.421875 -33.15625 L 12.5 -33.15625 L 12.5 -11.8125 C 12.5 -10.457031 12.601562 -9.253906 12.8125 -8.203125 C 13.03125 -7.160156 13.382812 -6.273438 13.875 -5.546875 C 14.363281 -4.828125 15.023438 -4.28125 15.859375 -3.90625 C 16.703125 -3.539062 17.75 -3.359375 19 -3.359375 C 20.363281 -3.359375 21.53125 -3.597656 22.5 -4.078125 C 23.476562 -4.554688 24.285156 -5.234375 24.921875 -6.109375 C 25.554688 -6.984375 26.023438 -8.035156 26.328125 -9.265625 C 26.628906 -10.492188 26.78125 -11.851562 26.78125 -13.34375 L 26.78125 -26.09375 C 26.78125 -27.0625 26.644531 -27.84375 26.375 -28.4375 C 26.101562 -29.03125 25.738281 -29.476562 25.28125 -29.78125 C 24.832031 -30.09375 24.300781 -30.300781 23.6875 -30.40625 C 23.070312 -30.507812 22.414062 -30.5625 21.71875 -30.5625 L 21.53125 -30.5625 L 21.53125 -33.15625 L 32.578125 -33.15625 Z M 32.578125 -6.734375 "/></g></g></g><g fill="#00ffff" fill-opacity="1"><g transform="translate(188.253793, 205.374186)"><g><path d="M 18.359375 -2.59375 L 18.359375 0 L 1.71875 0 L 1.71875 -2.59375 L 2.53125 -2.59375 C 3.238281 -2.59375 3.882812 -2.644531 4.46875 -2.75 C 5.050781 -2.851562 5.550781 -3.054688 5.96875 -3.359375 C 6.394531 -3.671875 6.722656 -4.117188 6.953125 -4.703125 C 7.191406 -5.296875 7.3125 -6.070312 7.3125 -7.03125 L 7.3125 -26.328125 C 7.3125 -27.234375 7.1875 -27.960938 6.9375 -28.515625 C 6.695312 -29.078125 6.363281 -29.503906 5.9375 -29.796875 C 5.519531 -30.097656 5.019531 -30.300781 4.4375 -30.40625 C 3.851562 -30.507812 3.21875 -30.5625 2.53125 -30.5625 L 2.359375 -30.5625 L 2.359375 -33.15625 L 12.046875 -33.15625 L 12.859375 -28.140625 L 13.171875 -28.140625 C 13.796875 -29.285156 14.445312 -30.222656 15.125 -30.953125 C 15.8125 -31.691406 16.539062 -32.269531 17.3125 -32.6875 C 18.09375 -33.101562 18.910156 -33.382812 19.765625 -33.53125 C 20.617188 -33.6875 21.53125 -33.765625 22.5 -33.765625 C 23.5 -33.765625 24.453125 -33.660156 25.359375 -33.453125 C 26.265625 -33.253906 27.101562 -32.929688 27.875 -32.484375 C 28.65625 -32.046875 29.351562 -31.46875 29.96875 -30.75 C 30.582031 -30.039062 31.082031 -29.171875 31.46875 -28.140625 L 31.984375 -28.140625 C 32.609375 -29.285156 33.28125 -30.222656 34 -30.953125 C 34.726562 -31.691406 35.5 -32.269531 36.3125 -32.6875 C 37.125 -33.101562 37.976562 -33.382812 38.875 -33.53125 C 39.769531 -33.6875 40.703125 -33.765625 41.671875 -33.765625 C 43.242188 -33.765625 44.648438 -33.523438 45.890625 -33.046875 C 47.140625 -32.578125 48.195312 -31.851562 49.0625 -30.875 C 49.9375 -29.894531 50.601562 -28.640625 51.0625 -27.109375 C 51.53125 -25.585938 51.765625 -23.769531 51.765625 -21.65625 L 51.765625 -7.03125 C 51.765625 -6.070312 51.882812 -5.296875 52.125 -4.703125 C 52.363281 -4.117188 52.691406 -3.671875 53.109375 -3.359375 C 53.535156 -3.054688 54.039062 -2.851562 54.625 -2.75 C 55.207031 -2.644531 55.84375 -2.59375 56.53125 -2.59375 L 56.703125 -2.59375 L 56.703125 0 L 45.953125 0 L 45.953125 -21.34375 C 45.953125 -22.695312 45.835938 -23.894531 45.609375 -24.9375 C 45.378906 -25.988281 45.003906 -26.875 44.484375 -27.59375 C 43.972656 -28.320312 43.304688 -28.867188 42.484375 -29.234375 C 41.660156 -29.609375 40.65625 -29.796875 39.46875 -29.796875 C 38.175781 -29.796875 37.09375 -29.550781 36.21875 -29.0625 C 35.34375 -28.570312 34.632812 -27.898438 34.09375 -27.046875 C 33.550781 -26.203125 33.160156 -25.226562 32.921875 -24.125 C 32.691406 -23.019531 32.578125 -21.84375 32.578125 -20.59375 L 32.578125 -7.03125 C 32.578125 -6.070312 32.695312 -5.296875 32.9375 -4.703125 C 33.1875 -4.117188 33.519531 -3.671875 33.9375 -3.359375 C 34.363281 -3.054688 34.867188 -2.851562 35.453125 -2.75 C 36.035156 -2.644531 36.671875 -2.59375 37.359375 -2.59375 L 37.53125 -2.59375 L 37.53125 0 L 26.78125 0 L 26.78125 -21.34375 C 26.78125 -22.695312 26.664062 -23.894531 26.4375 -24.9375 C 26.207031 -25.988281 25.832031 -26.875 25.3125 -27.59375 C 24.800781 -28.320312 24.132812 -28.867188 23.3125 -29.234375 C 22.488281 -29.609375 21.484375 -29.796875 20.296875 -29.796875 C 18.941406 -29.796875 17.804688 -29.523438 16.890625 -28.984375 C 15.972656 -28.441406 15.234375 -27.707031 14.671875 -26.78125 C 14.109375 -25.851562 13.707031 -24.785156 13.46875 -23.578125 C 13.226562 -22.367188 13.109375 -21.101562 13.109375 -19.78125 L 13.109375 -6.734375 C 13.109375 -5.828125 13.242188 -5.097656 13.515625 -4.546875 C 13.785156 -3.992188 14.148438 -3.578125 14.609375 -3.296875 C 15.078125 -3.015625 15.617188 -2.828125 16.234375 -2.734375 C 16.847656 -2.640625 17.492188 -2.59375 18.171875 -2.59375 Z M 18.359375 -2.59375 "/></g></g></g><g fill="#00ffff" fill-opacity="1"><g transform="translate(246.681577, 205.374186)"><g><path d="M 3.65625 7.484375 L 0 7.484375 L 14.21875 -46.984375 L 17.8125 -46.984375 Z M 3.65625 7.484375 "/></g></g></g><g fill="#00ffff" fill-opacity="1"><g transform="translate(264.496765, 205.374186)"><g><path d="M 4.015625 -6.796875 L 4.015625 -10.9375 L 24.796875 -22.078125 L 4.015625 -33.34375 L 4.015625 -37.46875 L 30.5625 -23.1875 L 30.5625 -21.015625 Z M 4.015625 -6.796875 "/></g></g></g><g fill="#ffffff" fill-opacity="1"><g transform="translate(73.375762, 205.374186)"><g><path d="M 4.015625 -21.015625 L 4.015625 -23.1875 L 30.5625 -37.46875 L 30.5625 -33.34375 L 9.78125 -22.078125 L 30.5625 -10.9375 L 30.5625 -6.796875 Z M 4.015625 -21.015625 "/></g></g></g><g fill="#ffffff" fill-opacity="1"><g transform="translate(107.949311, 205.374186)"><g><path d="M 12.5 -14.765625 L 10.140625 -8.28125 C 9.960938 -7.789062 9.820312 -7.304688 9.71875 -6.828125 C 9.625 -6.359375 9.578125 -5.953125 9.578125 -5.609375 C 9.578125 -4.566406 9.910156 -3.800781 10.578125 -3.3125 C 11.253906 -2.832031 12.285156 -2.59375 13.671875 -2.59375 L 15.09375 -2.59375 L 15.09375 0 L 0 0 L 0 -2.59375 L 1.171875 -2.59375 C 1.773438 -2.59375 2.289062 -2.65625 2.71875 -2.78125 C 3.144531 -2.914062 3.523438 -3.164062 3.859375 -3.53125 C 4.203125 -3.894531 4.53125 -4.390625 4.84375 -5.015625 C 5.15625 -5.640625 5.503906 -6.441406 5.890625 -7.421875 L 19.59375 -44.140625 L 24.421875 -44.140625 L 38.40625 -5.890625 C 38.644531 -5.242188 38.890625 -4.707031 39.140625 -4.28125 C 39.398438 -3.863281 39.703125 -3.53125 40.046875 -3.28125 C 40.390625 -3.03125 40.78125 -2.851562 41.21875 -2.75 C 41.664062 -2.644531 42.191406 -2.59375 42.796875 -2.59375 L 43.609375 -2.59375 L 43.609375 0 L 26.609375 0 L 26.609375 -2.59375 L 28.015625 -2.59375 C 30.492188 -2.59375 31.734375 -3.582031 31.734375 -5.5625 C 31.734375 -5.894531 31.6875 -6.242188 31.59375 -6.609375 C 31.507812 -6.972656 31.382812 -7.382812 31.21875 -7.84375 L 28.75 -14.765625 Z M 23.796875 -28.6875 C 23.148438 -30.519531 22.5625 -32.234375 22.03125 -33.828125 C 21.5 -35.429688 21.0625 -36.976562 20.71875 -38.46875 C 20.570312 -37.726562 20.40625 -37.007812 20.21875 -36.3125 C 20.03125 -35.613281 19.820312 -34.898438 19.59375 -34.171875 C 19.375 -33.453125 19.125 -32.691406 18.84375 -31.890625 C 18.5625 -31.097656 18.238281 -30.222656 17.875 -29.265625 L 13.671875 -17.875 L 27.625 -17.875 Z M 23.796875 -28.6875 "/></g></g></g><g fill="#ffffff" fill-opacity="1"><g transform="translate(151.551229, 205.374186)"><g><path d="M 32.578125 -6.734375 C 32.578125 -5.828125 32.710938 -5.097656 32.984375 -4.546875 C 33.253906 -3.992188 33.617188 -3.578125 34.078125 -3.296875 C 34.546875 -3.015625 35.085938 -2.828125 35.703125 -2.734375 C 36.316406 -2.640625 36.96875 -2.59375 37.65625 -2.59375 L 37.84375 -2.59375 L 37.84375 0 L 28.015625 0 L 27.203125 -5.015625 L 26.90625 -5.015625 C 26.28125 -3.847656 25.585938 -2.898438 24.828125 -2.171875 C 24.078125 -1.453125 23.28125 -0.882812 22.4375 -0.46875 C 21.59375 -0.0507812 20.707031 0.226562 19.78125 0.375 C 18.851562 0.53125 17.882812 0.609375 16.875 0.609375 C 15.25 0.609375 13.800781 0.378906 12.53125 -0.078125 C 11.257812 -0.546875 10.191406 -1.273438 9.328125 -2.265625 C 8.460938 -3.253906 7.800781 -4.507812 7.34375 -6.03125 C 6.894531 -7.5625 6.671875 -9.382812 6.671875 -11.5 L 6.671875 -26.328125 C 6.671875 -27.234375 6.535156 -27.960938 6.265625 -28.515625 C 5.992188 -29.078125 5.625 -29.503906 5.15625 -29.796875 C 4.695312 -30.097656 4.160156 -30.300781 3.546875 -30.40625 C 2.929688 -30.507812 2.28125 -30.5625 1.59375 -30.5625 L 1.421875 -30.5625 L 1.421875 -33.15625 L 12.5 -33.15625 L 12.5 -11.8125 C 12.5 -10.457031 12.601562 -9.253906 12.8125 -8.203125 C 13.03125 -7.160156 13.382812 -6.273438 13.875 -5.546875 C 14.363281 -4.828125 15.023438 -4.28125 15.859375 -3.90625 C 16.703125 -3.539062 17.75 -3.359375 19 -3.359375 C 20.363281 -3.359375 21.53125 -3.597656 22.5 -4.078125 C 23.476562 -4.554688 24.285156 -5.234375 24.921875 -6.109375 C 25.554688 -6.984375 26.023438 -8.035156 26.328125 -9.265625 C 26.628906 -10.492188 26.78125 -11.851562 26.78125 -13.34375 L 26.78125 -26.09375 C 26.78125 -27.0625 26.644531 -27.84375 26.375 -28.4375 C 26.101562 -29.03125 25.738281 -29.476562 25.28125 -29.78125 C 24.832031 -30.09375 24.300781 -30.300781 23.6875 -30.40625 C 23.070312 -30.507812 22.414062 -30.5625 21.71875 -30.5625 L 21.53125 -30.5625 L 21.53125 -33.15625 L 32.578125 -33.15625 Z M 32.578125 -6.734375 "/></g></g></g><g fill="#ffffff" fill-opacity="1"><g transform="translate(190.805034, 205.374186)"><g><path d="M 18.359375 -2.59375 L 18.359375 0 L 1.71875 0 L 1.71875 -2.59375 L 2.53125 -2.59375 C 3.238281 -2.59375 3.882812 -2.644531 4.46875 -2.75 C 5.050781 -2.851562 5.550781 -3.054688 5.96875 -3.359375 C 6.394531 -3.671875 6.722656 -4.117188 6.953125 -4.703125 C 7.191406 -5.296875 7.3125 -6.070312 7.3125 -7.03125 L 7.3125 -26.328125 C 7.3125 -27.234375 7.1875 -27.960938 6.9375 -28.515625 C 6.695312 -29.078125 6.363281 -29.503906 5.9375 -29.796875 C 5.519531 -30.097656 5.019531 -30.300781 4.4375 -30.40625 C 3.851562 -30.507812 3.21875 -30.5625 2.53125 -30.5625 L 2.359375 -30.5625 L 2.359375 -33.15625 L 12.046875 -33.15625 L 12.859375 -28.140625 L 13.171875 -28.140625 C 13.796875 -29.285156 14.445312 -30.222656 15.125 -30.953125 C 15.8125 -31.691406 16.539062 -32.269531 17.3125 -32.6875 C 18.09375 -33.101562 18.910156 -33.382812 19.765625 -33.53125 C 20.617188 -33.6875 21.53125 -33.765625 22.5 -33.765625 C 23.5 -33.765625 24.453125 -33.660156 25.359375 -33.453125 C 26.265625 -33.253906 27.101562 -32.929688 27.875 -32.484375 C 28.65625 -32.046875 29.351562 -31.46875 29.96875 -30.75 C 30.582031 -30.039062 31.082031 -29.171875 31.46875 -28.140625 L 31.984375 -28.140625 C 32.609375 -29.285156 33.28125 -30.222656 34 -30.953125 C 34.726562 -31.691406 35.5 -32.269531 36.3125 -32.6875 C 37.125 -33.101562 37.976562 -33.382812 38.875 -33.53125 C 39.769531 -33.6875 40.703125 -33.765625 41.671875 -33.765625 C 43.242188 -33.765625 44.648438 -33.523438 45.890625 -33.046875 C 47.140625 -32.578125 48.195312 -31.851562 49.0625 -30.875 C 49.9375 -29.894531 50.601562 -28.640625 51.0625 -27.109375 C 51.53125 -25.585938 51.765625 -23.769531 51.765625 -21.65625 L 51.765625 -7.03125 C 51.765625 -6.070312 51.882812 -5.296875 52.125 -4.703125 C 52.363281 -4.117188 52.691406 -3.671875 53.109375 -3.359375 C 53.535156 -3.054688 54.039062 -2.851562 54.625 -2.75 C 55.207031 -2.644531 55.84375 -2.59375 56.53125 -2.59375 L 56.703125 -2.59375 L 56.703125 0 L 45.953125 0 L 45.953125 -21.34375 C 45.953125 -22.695312 45.835938 -23.894531 45.609375 -24.9375 C 45.378906 -25.988281 45.003906 -26.875 44.484375 -27.59375 C 43.972656 -28.320312 43.304688 -28.867188 42.484375 -29.234375 C 41.660156 -29.609375 40.65625 -29.796875 39.46875 -29.796875 C 38.175781 -29.796875 37.09375 -29.550781 36.21875 -29.0625 C 35.34375 -28.570312 34.632812 -27.898438 34.09375 -27.046875 C 33.550781 -26.203125 33.160156 -25.226562 32.921875 -24.125 C 32.691406 -23.019531 32.578125 -21.84375 32.578125 -20.59375 L 32.578125 -7.03125 C 32.578125 -6.070312 32.695312 -5.296875 32.9375 -4.703125 C 33.1875 -4.117188 33.519531 -3.671875 33.9375 -3.359375 C 34.363281 -3.054688 34.867188 -2.851562 35.453125 -2.75 C 36.035156 -2.644531 36.671875 -2.59375 37.359375 -2.59375 L 37.53125 -2.59375 L 37.53125 0 L 26.78125 0 L 26.78125 -21.34375 C 26.78125 -22.695312 26.664062 -23.894531 26.4375 -24.9375 C 26.207031 -25.988281 25.832031 -26.875 25.3125 -27.59375 C 24.800781 -28.320312 24.132812 -28.867188 23.3125 -29.234375 C 22.488281 -29.609375 21.484375 -29.796875 20.296875 -29.796875 C 18.941406 -29.796875 17.804688 -29.523438 16.890625 -28.984375 C 15.972656 -28.441406 15.234375 -27.707031 14.671875 -26.78125 C 14.109375 -25.851562 13.707031 -24.785156 13.46875 -23.578125 C 13.226562 -22.367188 13.109375 -21.101562 13.109375 -19.78125 L 13.109375 -6.734375 C 13.109375 -5.828125 13.242188 -5.097656 13.515625 -4.546875 C 13.785156 -3.992188 14.148438 -3.578125 14.609375 -3.296875 C 15.078125 -3.015625 15.617188 -2.828125 16.234375 -2.734375 C 16.847656 -2.640625 17.492188 -2.59375 18.171875 -2.59375 Z M 18.359375 -2.59375 "/></g></g></g><g fill="#ffffff" fill-opacity="1"><g transform="translate(249.232818, 205.374186)"><g><path d="M 3.65625 7.484375 L 0 7.484375 L 14.21875 -46.984375 L 17.8125 -46.984375 Z M 3.65625 7.484375 "/></g></g></g><g fill="#ffffff" fill-opacity="1"><g transform="translate(267.048006, 205.374186)"><g><path d="M 4.015625 -6.796875 L 4.015625 -10.9375 L 24.796875 -22.078125 L 4.015625 -33.34375 L 4.015625 -37.46875 L 30.5625 -23.1875 L 30.5625 -21.015625 Z M 4.015625 -6.796875 "/></g></g></g><path stroke-linecap="butt" transform="matrix(1.497872, 0, 0, 1.6, 63.569151, 136.590637)" fill="none" stroke-linejoin="miter" d="M 0.000775616 -0.00049555 L 165.240368 -0.00049555 " stroke="#ffffff" stroke-width="1" stroke-opacity="1" stroke-miterlimit="4"/><path stroke-linecap="butt" transform="matrix(1.501685, 0, 0, 1.6, 65.034089, 230.18105)" fill="none" stroke-linejoin="miter" d="M 0.000710682 -0.000851365 L 90.399146 -0.000851365 " stroke="#ffffff" stroke-width="1" stroke-opacity="1" stroke-miterlimit="4"/><g fill="#ffffff" fill-opacity="1"><g transform="translate(214.531822, 234.400869)"><g><path d="M 13.175781 -14.121094 C 12.085938 -14.863281 10.328125 -14.964844 8.25 -14.398438 C 8.003906 -14.339844 7.773438 -14.265625 7.523438 -14.179688 C 7.539062 -14.238281 7.554688 -14.296875 7.570312 -14.351562 C 7.597656 -14.5 7.496094 -14.644531 7.351562 -14.6875 C 7.207031 -14.714844 7.046875 -14.613281 7.015625 -14.46875 C 6.988281 -14.308594 6.945312 -14.136719 6.902344 -13.945312 C 5.449219 -13.378906 4.054688 -12.566406 2.964844 -11.609375 C 0.902344 -9.804688 0.21875 -7.800781 1.089844 -6.074219 C 1.148438 -5.941406 1.320312 -5.882812 1.453125 -5.957031 C 1.597656 -6.015625 1.65625 -6.1875 1.582031 -6.335938 C 1.148438 -7.191406 0.800781 -8.976562 3.328125 -11.1875 C 4.269531 -12.015625 5.476562 -12.742188 6.742188 -13.277344 C 6.40625 -11.824219 5.925781 -9.851562 5.390625 -7.65625 C 4.546875 -4.226562 3.601562 -0.347656 2.921875 2.6875 C 2.542969 4.359375 2.28125 5.59375 2.136719 6.480469 C 1.886719 7.960938 1.945312 8.25 2.238281 8.351562 C 2.265625 8.367188 2.308594 8.367188 2.351562 8.367188 C 2.613281 8.367188 2.816406 8.019531 3.152344 7.265625 C 3.226562 7.132812 3.152344 6.957031 3.023438 6.902344 C 2.875 6.84375 2.703125 6.902344 2.644531 7.046875 C 2.628906 7.089844 2.601562 7.132812 2.585938 7.160156 C 2.816406 5.476562 3.75 1.480469 4.707031 -2.484375 C 5.054688 -1.742188 5.710938 -1.292969 6.566406 -1.234375 C 6.625 -1.234375 6.695312 -1.234375 6.753906 -1.234375 C 7.859375 -1.234375 9.167969 -1.875 10.359375 -3.007812 C 11.796875 -4.371094 13.015625 -6.378906 13.886719 -8.816406 C 15.035156 -12.015625 14.136719 -13.46875 13.175781 -14.121094 Z M 13.367188 -9.007812 C 12.304688 -6.042969 10.9375 -4.328125 9.964844 -3.398438 C 8.816406 -2.308594 7.597656 -1.730469 6.609375 -1.800781 C 5.78125 -1.84375 5.230469 -2.351562 5.054688 -3.226562 C 5.027344 -3.296875 4.984375 -3.355469 4.925781 -3.398438 C 5.273438 -4.835938 5.621094 -6.246094 5.925781 -7.523438 C 6.507812 -9.921875 7.03125 -12.042969 7.378906 -13.539062 C 7.714844 -13.65625 8.0625 -13.773438 8.398438 -13.859375 C 10.300781 -14.367188 11.925781 -14.296875 12.871094 -13.65625 C 14.296875 -12.683594 13.933594 -10.589844 13.367188 -9.007812 Z M 13.367188 -9.007812 "/></g></g></g><g fill="#ffffff" fill-opacity="1"><g transform="translate(227.338034, 234.400869)"><g><path d="M 4.910156 -3.238281 C 4.78125 -3.328125 4.605469 -3.296875 4.519531 -3.167969 C 3.429688 -1.640625 2.542969 -0.683594 1.671875 -0.0585938 C 1.234375 0.246094 0.8125 0.304688 0.539062 0.101562 C 0.363281 -0.0273438 -0.175781 -0.609375 0.449219 -2.644531 C 1.859375 -3.804688 2.628906 -4.910156 2.425781 -5.492188 C 2.351562 -5.664062 2.179688 -5.78125 1.992188 -5.78125 C 1.410156 -5.765625 0.523438 -4.765625 -0.0585938 -2.890625 C -0.769531 -0.582031 -0.1875 0.261719 0.21875 0.550781 C 0.421875 0.710938 0.652344 0.785156 0.914062 0.785156 C 1.25 0.785156 1.628906 0.652344 1.992188 0.390625 C 2.921875 -0.277344 3.835938 -1.265625 4.96875 -2.847656 C 5.054688 -2.976562 5.027344 -3.152344 4.910156 -3.238281 Z M 1.875 -5.171875 C 1.816406 -4.9375 1.570312 -4.472656 0.886719 -3.777344 C 1.265625 -4.621094 1.671875 -5.027344 1.875 -5.171875 Z M 1.875 -5.171875 "/></g></g></g><g fill="#ffffff" fill-opacity="1"><g transform="translate(231.563216, 234.400869)"><g><path d="M 4.910156 -3.238281 C 4.78125 -3.328125 4.605469 -3.296875 4.519531 -3.167969 C 3.429688 -1.640625 2.542969 -0.683594 1.671875 -0.0585938 C 1.234375 0.246094 0.8125 0.304688 0.539062 0.101562 C 0.363281 -0.0273438 -0.175781 -0.609375 0.449219 -2.644531 C 1.859375 -3.804688 2.628906 -4.910156 2.425781 -5.492188 C 2.351562 -5.664062 2.179688 -5.78125 1.992188 -5.78125 C 1.410156 -5.765625 0.523438 -4.765625 -0.0585938 -2.890625 C -0.769531 -0.582031 -0.1875 0.261719 0.21875 0.550781 C 0.421875 0.710938 0.652344 0.785156 0.914062 0.785156 C 1.25 0.785156 1.628906 0.652344 1.992188 0.390625 C 2.921875 -0.277344 3.835938 -1.265625 4.96875 -2.847656 C 5.054688 -2.976562 5.027344 -3.152344 4.910156 -3.238281 Z M 1.875 -5.171875 C 1.816406 -4.9375 1.570312 -4.472656 0.886719 -3.777344 C 1.265625 -4.621094 1.671875 -5.027344 1.875 -5.171875 Z M 1.875 -5.171875 "/></g></g></g><g fill="#ffffff" fill-opacity="1"><g transform="translate(235.788397, 234.400869)"><g><path d="M 6.378906 -3.285156 C 6.230469 -3.355469 6.058594 -3.296875 6 -3.152344 C 4.328125 0.363281 2.746094 2.164062 2.398438 2.105469 C 2.367188 2.09375 1.859375 1.597656 3.5 -3.441406 C 3.542969 -3.574219 3.644531 -3.878906 3.414062 -4.039062 C 3.195312 -4.214844 2.949219 -4.054688 2.542969 -3.777344 C 2.105469 -3.5 1.511719 -3.109375 1.046875 -3.167969 C 2.527344 -5.722656 2.382812 -6.289062 2.046875 -6.507812 C 1.523438 -6.8125 0.769531 -5.925781 0.421875 -5.417969 C -0.289062 -4.316406 -0.277344 -3.3125 0.480469 -2.804688 C 1.25 -2.265625 2.25 -2.921875 2.847656 -3.3125 C 2.863281 -3.328125 2.863281 -3.328125 2.875 -3.339844 C 2.308594 -1.554688 1.945312 -0.144531 1.816406 0.828125 C 1.65625 1.902344 1.773438 2.46875 2.179688 2.628906 C 2.25 2.644531 2.308594 2.660156 2.382812 2.660156 C 3.542969 2.660156 5.5625 -0.914062 6.507812 -2.90625 C 6.566406 -3.050781 6.507812 -3.226562 6.378906 -3.285156 Z M 0.507812 -4.285156 C 0.710938 -5.070312 1.394531 -5.796875 1.699219 -5.972656 C 1.671875 -5.738281 1.511719 -5.085938 0.582031 -3.472656 C 0.480469 -3.632812 0.40625 -3.878906 0.507812 -4.285156 Z M 0.507812 -4.285156 "/></g></g></g><g fill="#ffffff" fill-opacity="1"><g transform="translate(241.581682, 234.400869)"><g><path d="M 6.074219 -3.226562 C 5.941406 -3.285156 5.765625 -3.226562 5.710938 -3.09375 C 4.605469 -0.84375 3.777344 -0.128906 3.386719 -0.203125 C 3.226562 -0.234375 2.703125 -0.539062 2.570312 -3.078125 C 2.570312 -3.195312 2.484375 -3.296875 2.382812 -3.328125 C 2.265625 -3.355469 2.136719 -3.328125 2.078125 -3.226562 C 1.992188 -3.125 1.902344 -3.007812 1.816406 -2.875 C 1.453125 -2.382812 0.972656 -1.714844 0.390625 -1.089844 C 0.304688 -0.988281 0.234375 -0.929688 0.1875 -0.902344 C 0.0859375 -1.410156 0.625 -3.355469 1.480469 -3.964844 C 1.730469 -4.140625 2.0625 -4.269531 2.511719 -3.75 C 2.613281 -3.632812 2.789062 -3.617188 2.90625 -3.71875 C 3.023438 -3.804688 3.035156 -3.996094 2.949219 -4.109375 C 2.398438 -4.75 1.875 -4.734375 1.523438 -4.621094 C 0.40625 -4.226562 -0.347656 -2.078125 -0.378906 -1.089844 C -0.390625 -0.683594 -0.277344 -0.421875 -0.0429688 -0.335938 C 0.320312 -0.1875 0.683594 -0.582031 0.800781 -0.710938 C 1.292969 -1.25 1.742188 -1.832031 2.0625 -2.28125 C 2.222656 -0.625 2.613281 0.203125 3.269531 0.347656 C 3.328125 0.347656 3.386719 0.363281 3.441406 0.363281 C 4.429688 0.363281 5.492188 -1.367188 6.203125 -2.847656 C 6.277344 -2.992188 6.21875 -3.152344 6.074219 -3.226562 Z M 6.074219 -3.226562 "/></g></g></g><g fill="#ffffff" fill-opacity="1"><g transform="translate(246.982938, 234.400869)"><g><path d="M 3.109375 -5.390625 C 2.730469 -5.507812 1.742188 -5.433594 0.710938 -2.425781 C 1.292969 -5.710938 1.394531 -6.289062 1.378906 -6.390625 C 1.378906 -6.539062 1.25 -6.667969 1.089844 -6.652344 C 0.945312 -6.640625 0.828125 -6.523438 0.828125 -6.378906 C 0.8125 -6.175781 0.449219 -4.214844 0.0585938 -1.945312 C -0.0273438 -1.453125 -0.128906 -0.945312 -0.21875 -0.421875 C -0.421875 -0.347656 -0.625 -0.277344 -0.828125 -0.21875 C -0.972656 -0.175781 -1.058594 -0.0273438 -1.015625 0.128906 C -0.972656 0.277344 -0.828125 0.363281 -0.683594 0.320312 C -0.566406 0.289062 -0.449219 0.246094 -0.335938 0.21875 C -0.957031 3.761719 -1.671875 7.816406 -2.003906 10.039062 C -2.019531 10.183594 -1.917969 10.328125 -1.773438 10.34375 C -1.757812 10.34375 -1.742188 10.359375 -1.730469 10.359375 C -1.597656 10.359375 -1.46875 10.257812 -1.453125 10.125 C -1.089844 7.976562 -0.0859375 2.875 0.667969 -0.21875 C 1.117188 -0.449219 1.539062 -0.710938 1.933594 -1.015625 C 2.558594 -1.523438 3.355469 -2.339844 3.632812 -3.398438 C 3.90625 -4.371094 3.675781 -5.214844 3.109375 -5.390625 Z M 3.09375 -3.542969 C 2.816406 -2.511719 1.902344 -1.597656 0.855469 -0.957031 C 0.988281 -1.453125 1.105469 -1.875 1.207031 -2.179688 C 1.960938 -4.402344 2.660156 -4.851562 2.90625 -4.851562 C 2.921875 -4.851562 2.933594 -4.851562 2.949219 -4.851562 C 3.136719 -4.792969 3.296875 -4.285156 3.09375 -3.542969 Z M 3.09375 -3.542969 "/></g></g></g><g fill="#ffffff" fill-opacity="1"><g transform="translate(251.367833, 234.400869)"><g><path d="M 6.074219 -3.226562 C 5.941406 -3.285156 5.765625 -3.226562 5.710938 -3.09375 C 4.605469 -0.84375 3.777344 -0.128906 3.386719 -0.203125 C 3.226562 -0.234375 2.703125 -0.539062 2.570312 -3.078125 C 2.570312 -3.195312 2.484375 -3.296875 2.382812 -3.328125 C 2.265625 -3.355469 2.136719 -3.328125 2.078125 -3.226562 C 1.992188 -3.125 1.902344 -3.007812 1.816406 -2.875 C 1.453125 -2.382812 0.972656 -1.714844 0.390625 -1.089844 C 0.304688 -0.988281 0.234375 -0.929688 0.1875 -0.902344 C 0.0859375 -1.410156 0.625 -3.355469 1.480469 -3.964844 C 1.730469 -4.140625 2.0625 -4.269531 2.511719 -3.75 C 2.613281 -3.632812 2.789062 -3.617188 2.90625 -3.71875 C 3.023438 -3.804688 3.035156 -3.996094 2.949219 -4.109375 C 2.398438 -4.75 1.875 -4.734375 1.523438 -4.621094 C 0.40625 -4.226562 -0.347656 -2.078125 -0.378906 -1.089844 C -0.390625 -0.683594 -0.277344 -0.421875 -0.0429688 -0.335938 C 0.320312 -0.1875 0.683594 -0.582031 0.800781 -0.710938 C 1.292969 -1.25 1.742188 -1.832031 2.0625 -2.28125 C 2.222656 -0.625 2.613281 0.203125 3.269531 0.347656 C 3.328125 0.347656 3.386719 0.363281 3.441406 0.363281 C 4.429688 0.363281 5.492188 -1.367188 6.203125 -2.847656 C 6.277344 -2.992188 6.21875 -3.152344 6.074219 -3.226562 Z M 6.074219 -3.226562 "/></g></g></g><g fill="#ffffff" fill-opacity="1"><g transform="translate(256.769089, 234.400869)"><g><path d="M 12.261719 -8.570312 C 12.074219 -8.832031 11.230469 -8.992188 2.207031 -8.789062 C 2.5 -9.964844 2.761719 -11.027344 2.992188 -11.882812 C 3.035156 -12.042969 2.949219 -12.1875 2.804688 -12.230469 C 2.660156 -12.277344 2.5 -12.1875 2.457031 -12.042969 C 2.207031 -11.128906 1.933594 -10.023438 1.628906 -8.773438 C 0.828125 -8.761719 -0.0429688 -8.746094 -0.988281 -8.714844 C -2.28125 -8.6875 -3.296875 -8.660156 -3.691406 -8.660156 C -3.851562 -8.660156 -3.980469 -8.527344 -3.980469 -8.382812 C -3.980469 -8.222656 -3.851562 -8.09375 -3.691406 -8.09375 C -3.285156 -8.105469 -2.265625 -8.121094 -0.972656 -8.164062 C -0.289062 -8.179688 0.550781 -8.195312 1.496094 -8.222656 C 0.871094 -5.578125 0.160156 -2.410156 -0.480469 0.683594 C -0.945312 2.949219 -1.320312 4.910156 -1.570312 6.347656 C -1.699219 7.105469 -1.785156 7.699219 -1.832031 8.105469 C -1.886719 8.660156 -1.917969 8.976562 -1.640625 9.078125 C -1.597656 9.078125 -1.570312 9.09375 -1.523438 9.09375 C -1.277344 9.09375 -1.148438 8.746094 -1.03125 8.425781 C -0.972656 8.28125 -1.046875 8.121094 -1.191406 8.0625 C -1.21875 8.0625 -1.234375 8.046875 -1.265625 8.046875 C -1.117188 6.914062 -0.683594 4.371094 0.160156 0.363281 C 0.785156 -2.671875 1.46875 -5.710938 2.078125 -8.238281 C 6.074219 -8.324219 11.257812 -8.398438 11.855469 -8.195312 C 11.957031 -8.105469 12.085938 -8.105469 12.203125 -8.179688 C 12.320312 -8.265625 12.347656 -8.441406 12.261719 -8.570312 Z M 12.261719 -8.570312 "/></g></g></g><g fill="#ffffff" fill-opacity="1"><g transform="translate(258.700188, 234.400869)"><g/></g></g><g fill="#ffffff" fill-opacity="1"><g transform="translate(263.157673, 234.400869)"><g><path d="M 11.796875 -3.386719 C 11.652344 -3.441406 11.492188 -3.386719 11.433594 -3.238281 C 9.777344 0.277344 8.179688 2.863281 6.667969 4.445312 C 5.390625 5.78125 4.242188 6.335938 3.328125 6.058594 C 2.5 5.796875 1.859375 4.824219 1.539062 3.3125 C 1.175781 1.683594 1.191406 -0.40625 1.570312 -2.730469 C 2.105469 -6.042969 3.660156 -10.734375 5.476562 -12.914062 C 6.015625 -13.554688 6.480469 -13.859375 6.753906 -13.714844 C 7.4375 -13.378906 7.714844 -10.605469 6.21875 -3.878906 C 6.175781 -3.734375 6.277344 -3.589844 6.421875 -3.542969 C 6.582031 -3.515625 6.726562 -3.617188 6.753906 -3.761719 C 7.730469 -8.105469 8.558594 -13.453125 7.003906 -14.222656 C 6.625 -14.410156 5.984375 -14.398438 5.054688 -13.277344 C 3.894531 -11.882812 3.007812 -9.804688 2.46875 -8.296875 C 1.816406 -6.507812 1.292969 -4.503906 1.015625 -2.816406 C 0.203125 2.164062 1.074219 5.941406 3.167969 6.59375 C 3.371094 6.652344 3.589844 6.683594 3.804688 6.683594 C 6.101562 6.683594 9.023438 3.226562 11.925781 -3.007812 C 12 -3.152344 11.941406 -3.3125 11.796875 -3.386719 Z M 11.796875 -3.386719 "/></g></g></g><g fill="#ffffff" fill-opacity="1"><g transform="translate(274.366737, 234.400869)"><g><path d="M 6.871094 -3.3125 C 6.742188 -3.398438 6.566406 -3.355469 6.492188 -3.226562 C 4.429688 0.101562 3.703125 0.0273438 3.632812 0.015625 C 3.488281 -0.0273438 3.328125 -0.320312 3.285156 -1.03125 C 3.269531 -1.351562 3.195312 -2.308594 2.558594 -2.398438 C 1.816406 -2.5 0.929688 -1.207031 0.128906 0.464844 C 0.625 -1.742188 1.335938 -4.78125 1.859375 -6.929688 C 3.804688 -10.429688 4.792969 -13.058594 4.386719 -13.625 C 4.300781 -13.757812 4.15625 -13.800781 4.007812 -13.773438 C 3.386719 -13.65625 2.410156 -11.535156 1.757812 -8.847656 C 1.730469 -8.746094 -0.871094 1.875 -0.957031 3.179688 C -0.957031 3.328125 -0.871094 3.441406 -0.726562 3.472656 C -0.710938 3.472656 -0.699219 3.472656 -0.683594 3.472656 C -0.566406 3.472656 -0.449219 3.398438 -0.40625 3.296875 C 0.855469 -0.335938 2.09375 -1.84375 2.457031 -1.84375 C 2.46875 -1.84375 2.46875 -1.84375 2.46875 -1.84375 C 2.527344 -1.84375 2.6875 -1.671875 2.730469 -1.003906 C 2.746094 -0.652344 2.816406 0.378906 3.488281 0.550781 C 3.777344 0.625 4.632812 0.84375 6.957031 -2.933594 C 7.046875 -3.066406 7.003906 -3.238281 6.871094 -3.3125 Z M 3.90625 -12.972656 C 3.792969 -12.390625 3.386719 -11.144531 2.410156 -9.179688 C 2.964844 -11.273438 3.558594 -12.480469 3.90625 -12.972656 Z M 3.90625 -12.972656 "/></g></g></g><g fill="#ffffff" fill-opacity="1"><g transform="translate(280.624652, 234.400869)"><g><path d="M 6.074219 -3.226562 C 5.941406 -3.285156 5.765625 -3.226562 5.710938 -3.09375 C 4.605469 -0.84375 3.777344 -0.128906 3.386719 -0.203125 C 3.226562 -0.234375 2.703125 -0.539062 2.570312 -3.078125 C 2.570312 -3.195312 2.484375 -3.296875 2.382812 -3.328125 C 2.265625 -3.355469 2.136719 -3.328125 2.078125 -3.226562 C 1.992188 -3.125 1.902344 -3.007812 1.816406 -2.875 C 1.453125 -2.382812 0.972656 -1.714844 0.390625 -1.089844 C 0.304688 -0.988281 0.234375 -0.929688 0.1875 -0.902344 C 0.0859375 -1.410156 0.625 -3.355469 1.480469 -3.964844 C 1.730469 -4.140625 2.0625 -4.269531 2.511719 -3.75 C 2.613281 -3.632812 2.789062 -3.617188 2.90625 -3.71875 C 3.023438 -3.804688 3.035156 -3.996094 2.949219 -4.109375 C 2.398438 -4.75 1.875 -4.734375 1.523438 -4.621094 C 0.40625 -4.226562 -0.347656 -2.078125 -0.378906 -1.089844 C -0.390625 -0.683594 -0.277344 -0.421875 -0.0429688 -0.335938 C 0.320312 -0.1875 0.683594 -0.582031 0.800781 -0.710938 C 1.292969 -1.25 1.742188 -1.832031 2.0625 -2.28125 C 2.222656 -0.625 2.613281 0.203125 3.269531 0.347656 C 3.328125 0.347656 3.386719 0.363281 3.441406 0.363281 C 4.429688 0.363281 5.492188 -1.367188 6.203125 -2.847656 C 6.277344 -2.992188 6.21875 -3.152344 6.074219 -3.226562 Z M 6.074219 -3.226562 "/></g></g></g><g fill="#ffffff" fill-opacity="1"><g transform="translate(286.025908, 234.400869)"><g><path d="M 5.839844 -3.238281 C 5.710938 -3.3125 5.535156 -3.269531 5.460938 -3.125 C 5.113281 -2.527344 4.199219 -0.914062 3.675781 -0.972656 C 3.574219 -0.988281 3.285156 -1.132812 2.992188 -2.148438 C 2.789062 -2.863281 2.511719 -3.53125 1.976562 -3.558594 C 1.582031 -3.589844 1.148438 -3.285156 0.480469 -2.035156 C 0.652344 -2.660156 0.84375 -3.285156 0.988281 -3.792969 C 1.046875 -3.980469 1.089844 -4.140625 1.132812 -4.300781 C 1.175781 -4.445312 1.089844 -4.605469 0.945312 -4.648438 C 0.800781 -4.691406 0.640625 -4.605469 0.59375 -4.445312 C 0.550781 -4.300781 0.507812 -4.125 0.449219 -3.953125 C 0.0742188 -2.660156 -0.492188 -0.699219 -0.640625 0.492188 C -0.652344 0.625 -0.566406 0.753906 -0.4375 0.785156 C -0.40625 0.800781 -0.390625 0.800781 -0.363281 0.800781 C -0.246094 0.800781 -0.144531 0.726562 -0.101562 0.625 C 1.265625 -2.773438 1.816406 -3.007812 1.945312 -3.007812 C 1.976562 -3.007812 2.179688 -2.949219 2.457031 -1.992188 C 2.746094 -0.988281 3.125 -0.480469 3.617188 -0.421875 C 4.359375 -0.335938 5.027344 -1.25 5.941406 -2.847656 C 6.027344 -2.992188 5.972656 -3.152344 5.839844 -3.238281 Z M 5.839844 -3.238281 "/></g></g></g><g fill="#ffffff" fill-opacity="1"><g transform="translate(291.209372, 234.400869)"><g><path d="M 5.839844 -3.238281 C 5.710938 -3.3125 5.535156 -3.269531 5.460938 -3.125 C 5.113281 -2.527344 4.199219 -0.914062 3.675781 -0.972656 C 3.574219 -0.988281 3.285156 -1.132812 2.992188 -2.148438 C 2.789062 -2.863281 2.511719 -3.53125 1.976562 -3.558594 C 1.582031 -3.589844 1.148438 -3.285156 0.480469 -2.035156 C 0.652344 -2.660156 0.84375 -3.285156 0.988281 -3.792969 C 1.046875 -3.980469 1.089844 -4.140625 1.132812 -4.300781 C 1.175781 -4.445312 1.089844 -4.605469 0.945312 -4.648438 C 0.800781 -4.691406 0.640625 -4.605469 0.59375 -4.445312 C 0.550781 -4.300781 0.507812 -4.125 0.449219 -3.953125 C 0.0742188 -2.660156 -0.492188 -0.699219 -0.640625 0.492188 C -0.652344 0.625 -0.566406 0.753906 -0.4375 0.785156 C -0.40625 0.800781 -0.390625 0.800781 -0.363281 0.800781 C -0.246094 0.800781 -0.144531 0.726562 -0.101562 0.625 C 1.265625 -2.773438 1.816406 -3.007812 1.945312 -3.007812 C 1.976562 -3.007812 2.179688 -2.949219 2.457031 -1.992188 C 2.746094 -0.988281 3.125 -0.480469 3.617188 -0.421875 C 4.359375 -0.335938 5.027344 -1.25 5.941406 -2.847656 C 6.027344 -2.992188 5.972656 -3.152344 5.839844 -3.238281 Z M 5.839844 -3.238281 "/></g></g></g><g fill="#ffffff" fill-opacity="1"><g transform="translate(296.392836, 234.400869)"><g><path d="M 6.074219 -3.226562 C 5.941406 -3.285156 5.765625 -3.226562 5.710938 -3.09375 C 4.605469 -0.84375 3.777344 -0.128906 3.386719 -0.203125 C 3.226562 -0.234375 2.703125 -0.539062 2.570312 -3.078125 C 2.570312 -3.195312 2.484375 -3.296875 2.382812 -3.328125 C 2.265625 -3.355469 2.136719 -3.328125 2.078125 -3.226562 C 1.992188 -3.125 1.902344 -3.007812 1.816406 -2.875 C 1.453125 -2.382812 0.972656 -1.714844 0.390625 -1.089844 C 0.304688 -0.988281 0.234375 -0.929688 0.1875 -0.902344 C 0.0859375 -1.410156 0.625 -3.355469 1.480469 -3.964844 C 1.730469 -4.140625 2.0625 -4.269531 2.511719 -3.75 C 2.613281 -3.632812 2.789062 -3.617188 2.90625 -3.71875 C 3.023438 -3.804688 3.035156 -3.996094 2.949219 -4.109375 C 2.398438 -4.75 1.875 -4.734375 1.523438 -4.621094 C 0.40625 -4.226562 -0.347656 -2.078125 -0.378906 -1.089844 C -0.390625 -0.683594 -0.277344 -0.421875 -0.0429688 -0.335938 C 0.320312 -0.1875 0.683594 -0.582031 0.800781 -0.710938 C 1.292969 -1.25 1.742188 -1.832031 2.0625 -2.28125 C 2.222656 -0.625 2.613281 0.203125 3.269531 0.347656 C 3.328125 0.347656 3.386719 0.363281 3.441406 0.363281 C 4.429688 0.363281 5.492188 -1.367188 6.203125 -2.847656 C 6.277344 -2.992188 6.21875 -3.152344 6.074219 -3.226562 Z M 6.074219 -3.226562 "/></g></g></g><g fill="#ffffff" fill-opacity="1"><g transform="translate(301.794092, 234.400869)"><g><path d="M 6.246094 -3.269531 C 6.117188 -3.339844 5.941406 -3.296875 5.867188 -3.167969 C 4.632812 -1.191406 2.410156 0.480469 1.582031 0.320312 C 1.453125 0.304688 1.277344 0.234375 1.191406 -0.101562 C 1.234375 -0.160156 1.308594 -0.21875 1.378906 -0.277344 C 1.613281 -0.480469 1.945312 -0.769531 2.238281 -1.132812 C 2.703125 -1.742188 2.90625 -2.484375 2.730469 -2.90625 C 2.644531 -3.078125 2.5 -3.195312 2.308594 -3.210938 C 1.902344 -3.238281 1.4375 -2.832031 0.886719 -1.976562 C 0.625 -1.570312 0.378906 -1.117188 0.160156 -0.640625 C 0.609375 -2.660156 1.164062 -5.085938 1.582031 -6.902344 C 3.53125 -10.386719 4.503906 -13.003906 4.097656 -13.570312 C 4.007812 -13.683594 3.863281 -13.742188 3.71875 -13.714844 C 3.09375 -13.597656 2.121094 -11.476562 1.46875 -8.789062 C 1.367188 -8.382812 1.21875 -7.785156 1.058594 -7.089844 C 1.046875 -7.074219 1.046875 -7.046875 1.046875 -7.015625 C 0.21875 -3.515625 -1.175781 2.671875 -1.191406 3.152344 C -1.191406 3.296875 -1.089844 3.414062 -0.957031 3.429688 C -0.945312 3.441406 -0.929688 3.441406 -0.902344 3.441406 C -0.785156 3.441406 -0.683594 3.355469 -0.640625 3.238281 L -0.582031 3.035156 C -0.101562 1.523438 0.507812 -0.378906 1.351562 -1.671875 C 1.84375 -2.441406 2.136719 -2.613281 2.222656 -2.644531 C 2.265625 -2.484375 2.195312 -1.992188 1.785156 -1.46875 C 1.539062 -1.164062 1.234375 -0.886719 1.003906 -0.699219 C 0.710938 -0.4375 0.582031 -0.320312 0.609375 -0.117188 C 0.753906 0.59375 1.164062 0.8125 1.480469 0.871094 C 1.554688 0.886719 1.628906 0.886719 1.699219 0.886719 C 3.09375 0.886719 5.359375 -1.308594 6.335938 -2.875 C 6.421875 -3.007812 6.378906 -3.179688 6.246094 -3.269531 Z M 3.617188 -12.914062 C 3.515625 -12.320312 3.09375 -11.085938 2.121094 -9.109375 C 2.6875 -11.214844 3.285156 -12.421875 3.617188 -12.914062 Z M 3.617188 -12.914062 "/></g></g></g><path stroke-linecap="butt" transform="matrix(0.000000000000000092, -1.50263, 1.6, 0.000000000000000098, 64.396253, 230.788607)" fill="none" stroke-linejoin="miter" d="M -0.000302972 -0.00107614 L 62.392924 -0.00107614 " stroke="#ffffff" stroke-width="1" stroke-opacity="1" stroke-miterlimit="4"/><path stroke-linecap="butt" transform="matrix(0.000000000000000092, -1.505824, 1.6, 0.000000000000000098, 312.232659, 211.220041)" fill="none" stroke-linejoin="miter" d="M 0.000857026 0.00107238 L 50.308138 0.00107238 " stroke="#ffffff" stroke-width="1" stroke-opacity="1" stroke-miterlimit="4"/></svg>