<?xml version="1.0" encoding="UTF-8"?>
<svg xmlns="http://www.w3.org/2000/svg" xmlns:xlink="http://www.w3.org/1999/xlink" width="px" height="50px" viewBox="0 0 49 49" version="1.1">
<g id="surface1">
<path style=" stroke:none;fill-rule:nonzero;fill:rgb(13.72549%,14.509804%,15.294118%);fill-opacity:1;" d="M 15.070312 40.996094 L 15.070312 45.589844 C 15.070312 46.894531 14.414062 47.589844 13.21875 47.589844 C 12.015625 47.589844 11.355469 46.871094 11.355469 45.53125 L 11.355469 41 L 9.703125 41 L 9.703125 45.589844 C 9.703125 47.84375 10.976562 49.140625 13.195312 49.140625 C 15.4375 49.140625 16.722656 47.820312 16.722656 45.523438 L 16.722656 40.996094 Z M 21.152344 40.996094 L 17.5625 49.015625 L 19.25 49.015625 L 19.941406 47.460938 L 19.992188 47.34375 L 23.722656 47.34375 L 24.453125 49.015625 L 26.1875 49.015625 L 22.628906 41.042969 L 22.597656 40.996094 Z M 30.980469 40.996094 L 29.132812 46.511719 L 27.332031 41 L 25.570312 41 L 28.410156 49.019531 L 29.78125 49.019531 L 31.632812 43.75 L 33.488281 49.019531 L 34.867188 49.019531 L 37.699219 41 L 35.984375 41 L 34.179688 46.511719 L 32.332031 40.996094 Z M 47.160156 40.996094 L 47.160156 49.007812 L 48.789062 49.007812 L 48.789062 40.996094 Z M 0.371094 40.996094 L 0.371094 49.019531 L 2.023438 49.019531 L 2.023438 45.761719 L 5.757812 45.761719 L 5.757812 49.019531 L 7.410156 49.019531 L 7.410156 40.996094 L 5.757812 40.996094 L 5.757812 44.234375 L 2.023438 44.234375 L 2.023438 40.996094 Z M 39.03125 41.003906 L 39.03125 49.011719 L 45.1875 49.011719 L 45.1875 47.550781 L 40.664062 47.550781 L 40.664062 45.566406 L 43.671875 45.566406 L 43.671875 44.105469 L 40.664062 44.105469 L 40.664062 42.460938 L 45.03125 42.460938 L 45.03125 41.003906 Z M 21.855469 43.027344 L 23.03125 45.710938 L 23.027344 45.710938 L 23.109375 45.898438 L 20.609375 45.898438 L 20.6875 45.710938 L 20.683594 45.710938 Z M 21.855469 43.027344 "/>
<path style=" stroke:none;fill-rule:nonzero;fill:rgb(81.176471%,3.921569%,17.254902%);fill-opacity:1;" d="M 20.960938 0 C 20.304688 0.0585938 18.53125 0.453125 18.53125 0.453125 C 14.535156 1.46875 13.59375 5.039062 13.59375 5.039062 C 13.398438 5.640625 13.308594 6.253906 13.28125 6.832031 L 13.28125 7.621094 C 13.335938 8.839844 13.609375 9.75 13.609375 9.75 C 14.945312 15.574219 21.507812 25.144531 22.917969 27.15625 C 23.015625 27.253906 23.097656 27.21875 23.097656 27.21875 C 23.25 27.175781 23.238281 27.03125 23.238281 27.03125 L 23.238281 27.035156 C 25.410156 5.664062 20.960938 0 20.960938 0 Z M 28.136719 0 C 28.136719 0 23.664062 5.667969 25.839844 27.046875 L 25.84375 27.046875 C 25.859375 27.183594 25.957031 27.210938 25.957031 27.210938 C 26.101562 27.269531 26.175781 27.128906 26.175781 27.128906 L 26.179688 27.132812 C 27.625 25.070312 34.148438 15.550781 35.476562 9.75 C 35.476562 9.75 36.195312 6.941406 35.5 5.039062 C 35.5 5.039062 34.511719 1.414062 30.515625 0.457031 C 30.515625 0.457031 29.359375 0.167969 28.136719 0 Z M 7.515625 6.414062 C 7.515625 6.414062 3.710938 9.972656 3.519531 13.742188 L 3.523438 13.742188 L 3.523438 14.3125 C 3.523438 14.355469 3.527344 14.398438 3.53125 14.441406 C 3.695312 17.484375 6.015625 19.28125 6.015625 19.28125 C 9.761719 22.875 18.824219 27.40625 20.929688 28.4375 C 20.960938 28.449219 21.070312 28.484375 21.132812 28.402344 C 21.132812 28.402344 21.167969 28.378906 21.179688 28.332031 L 21.179688 28.238281 C 21.179688 28.234375 21.175781 28.226562 21.175781 28.222656 C 15.40625 15.816406 7.515625 6.414062 7.515625 6.414062 Z M 41.570312 6.414062 C 41.570312 6.414062 33.703125 15.789062 27.9375 28.167969 L 27.941406 28.167969 C 27.941406 28.167969 27.875 28.308594 27.984375 28.402344 C 27.984375 28.402344 28.015625 28.425781 28.0625 28.4375 L 28.140625 28.4375 C 28.15625 28.433594 28.171875 28.429688 28.1875 28.417969 C 30.351562 27.363281 39.34375 22.859375 43.070312 19.28125 C 43.070312 19.28125 45.429688 17.417969 45.554688 14.421875 C 45.824219 10.265625 41.570312 6.414062 41.570312 6.414062 Z M 48.652344 18.730469 C 48.652344 18.730469 35.828125 25.503906 29.195312 29.90625 L 29.195312 29.910156 L 29.199219 29.910156 C 29.199219 29.910156 29.078125 29.988281 29.121094 30.125 C 29.121094 30.125 29.183594 30.238281 29.273438 30.238281 C 31.648438 30.242188 40.636719 30.253906 40.863281 30.210938 C 40.863281 30.210938 42.023438 30.167969 43.460938 29.625 C 43.460938 29.625 46.660156 28.621094 48.320312 25.050781 C 48.320312 25.050781 49.078125 23.554688 49.089844 21.457031 L 49.089844 21.367188 C 49.082031 20.558594 48.96875 19.660156 48.652344 18.730469 Z M 0.429688 18.761719 C -0.734375 22.316406 0.835938 25.183594 0.835938 25.1875 C 2.476562 28.59375 5.601562 29.625 5.601562 29.625 C 7.042969 30.207031 8.484375 30.246094 8.484375 30.246094 C 8.710938 30.289062 17.460938 30.253906 19.804688 30.242188 C 19.902344 30.242188 19.957031 30.140625 19.957031 30.140625 C 19.964844 30.132812 19.972656 30.121094 19.972656 30.109375 L 19.972656 30.023438 C 19.953125 29.960938 19.902344 29.921875 19.902344 29.921875 L 19.90625 29.917969 C 13.277344 25.515625 0.429688 18.761719 0.429688 18.761719 Z M 19.535156 31.335938 L 4.449219 31.855469 C 6.085938 34.726562 8.839844 36.957031 11.710938 36.273438 C 13.691406 35.785156 18.179688 32.703125 19.660156 31.664062 L 19.65625 31.660156 C 19.773438 31.554688 19.730469 31.476562 19.730469 31.476562 C 19.691406 31.339844 19.535156 31.339844 19.535156 31.339844 Z M 29.53125 31.34375 L 29.527344 31.351562 C 29.527344 31.351562 29.394531 31.367188 29.359375 31.464844 C 29.359375 31.464844 29.328125 31.597656 29.417969 31.664062 L 29.414062 31.667969 C 30.859375 32.6875 35.238281 35.699219 37.347656 36.285156 C 37.347656 36.285156 37.667969 36.390625 38.203125 36.410156 L 38.523438 36.410156 C 39.9375 36.363281 42.402344 35.648438 44.636719 31.863281 Z M 29.53125 31.34375 "/>
</g>
</svg>
