<?xml version="1.0" encoding="UTF-8"?>
<svg xmlns="http://www.w3.org/2000/svg" xmlns:xlink="http://www.w3.org/1999/xlink" width="px" height="50px" viewBox="0 0 50 50" version="1.1">
<g id="surface1">
<path style=" stroke:none;fill-rule:nonzero;fill:rgb(0%,0%,0%);fill-opacity:1;" d="M 25 1.1875 C 38.140625 1.1875 48.8125 11.882812 48.8125 25 C 48.8125 38.117188 38.117188 48.8125 25 48.8125 C 11.882812 48.8125 1.1875 38.140625 1.1875 25 C 1.1875 11.859375 11.882812 1.1875 25 1.1875 M 25 0 C 11.191406 0 0 11.191406 0 25 C 0 38.808594 11.191406 50 25 50 C 38.808594 50 50 38.808594 50 25 C 50 11.191406 38.832031 0 25 0 Z M 25 0 "/>
<path style=" stroke:none;fill-rule:nonzero;fill:rgb(0%,0%,0%);fill-opacity:1;" d="M 23.265625 10.027344 C 23.265625 10.027344 17.632812 11.621094 12.570312 16.992188 C 7.507812 22.363281 6.867188 26.1875 6.867188 29.039062 C 7.984375 27.140625 14.875 16.660156 16.492188 21.648438 L 16.492188 33.578125 C 16.492188 33.578125 16.398438 35.195312 13.925781 34.554688 C 14.664062 35.929688 18.464844 39.328125 25.332031 40.019531 C 26.902344 38.449219 28.945312 36.191406 28.945312 36.191406 L 32.367188 39.09375 C 32.367188 39.09375 38.523438 35.101562 40.945312 29.300781 C 38.6875 30.773438 35.957031 34.195312 34.53125 31.796875 L 34.53125 17.277344 C 34.53125 17.277344 38.1875 11.785156 38.757812 11.527344 C 37.308594 11.785156 32.199219 13.472656 29.515625 16.945312 C 28.753906 16.113281 26.640625 16.089844 26.640625 16.089844 C 26.640625 16.089844 28.304688 17.464844 28.328125 18.726562 C 28.351562 19.984375 28.328125 30.488281 28.328125 31.703125 C 27.1875 32.867188 25.972656 33.484375 25.191406 33.484375 C 23.359375 33.484375 22.835938 32.84375 22.339844 32.199219 L 22.339844 16.945312 C 22.339844 16.945312 21.433594 17.703125 20.722656 16.46875 C 20.007812 15.234375 19.984375 12.832031 23.265625 10.027344 Z M 23.265625 10.027344 "/>
</g>
</svg>
