<?xml version="1.0" encoding="UTF-8"?>
<svg xmlns="http://www.w3.org/2000/svg" xmlns:xlink="http://www.w3.org/1999/xlink" width="px" height="50px" viewBox="0 0 39 49" version="1.1">
<g id="surface1">
<path style=" stroke:none;fill-rule:nonzero;fill:rgb(16.862745%,66.27451%,46.666667%);fill-opacity:1;" d="M 17.488281 0 L 25.601562 0 L 25.601562 36.699219 C 21.445312 37.476562 18.386719 37.78125 15.074219 37.78125 C 5.160156 37.769531 0 33.402344 0 25.011719 C 0 16.925781 5.472656 11.679688 13.957031 11.679688 C 15.273438 11.679688 16.273438 11.78125 17.488281 12.085938 Z M 17.769531 18.699219 C 16.820312 18.394531 16.035156 18.292969 15.035156 18.292969 C 10.929688 18.292969 8.558594 20.761719 8.558594 25.089844 C 8.558594 29.308594 10.824219 31.632812 14.980469 31.632812 C 15.878906 31.632812 16.613281 31.585938 17.769531 31.429688 Z M 17.769531 18.699219 "/>
<path style=" stroke:none;fill-rule:nonzero;fill:rgb(16.862745%,66.27451%,46.666667%);fill-opacity:1;" d="M 38.875 12.664062 L 38.875 31.039062 C 38.875 37.367188 38.394531 40.410156 36.984375 43.035156 C 35.667969 45.554688 33.933594 47.148438 30.351562 48.902344 L 22.820312 45.402344 C 26.402344 43.757812 28.136719 42.308594 29.246094 40.09375 C 30.40625 37.828125 30.769531 35.203125 30.769531 28.304688 L 30.769531 12.664062 Z M 29.953125 0 L 38.070312 0 L 38.070312 8.136719 L 29.953125 8.136719 Z M 29.953125 0 "/>
</g>
</svg>
