<?xml version="1.0" encoding="UTF-8"?>
<svg xmlns="http://www.w3.org/2000/svg" xmlns:xlink="http://www.w3.org/1999/xlink" width="px" height="50px" viewBox="0 0 62 50" version="1.1">
<g id="surface1">
<path style=" stroke:none;fill-rule:evenodd;fill:rgb(47.45098%,32.156863%,70.196078%);fill-opacity:1;" d="M 12.878906 0.0078125 C 9.339844 0.0078125 6.722656 3.140625 6.839844 6.539062 C 6.953125 9.804688 6.804688 14.03125 5.753906 17.480469 C 4.699219 20.9375 2.914062 23.128906 0 23.410156 L 0 26.589844 C 2.914062 26.871094 4.699219 29.058594 5.753906 32.519531 C 6.804688 35.96875 6.953125 40.195312 6.839844 43.460938 C 6.722656 46.859375 9.339844 49.992188 12.878906 49.992188 L 49.128906 49.992188 C 52.664062 49.992188 55.28125 46.859375 55.164062 43.460938 C 55.050781 40.195312 55.199219 35.96875 56.25 32.519531 C 57.304688 29.058594 59.085938 26.867188 62 26.589844 L 62 23.410156 C 59.085938 23.128906 57.304688 20.941406 56.25 17.480469 C 55.199219 14.03125 55.050781 9.804688 55.164062 6.539062 C 55.28125 3.140625 52.664062 0.0078125 49.128906 0.0078125 Z M 42.035156 30.777344 C 42.035156 35.457031 38.585938 38.292969 32.863281 38.292969 L 23.117188 38.292969 C 22.539062 38.292969 22.066406 37.820312 22.066406 37.230469 L 22.066406 12.769531 C 22.066406 12.179688 22.539062 11.707031 23.117188 11.707031 L 32.804688 11.707031 C 37.578125 11.707031 40.710938 14.320312 40.710938 18.339844 C 40.710938 21.160156 38.605469 23.683594 35.917969 24.125 L 35.917969 24.273438 C 39.574219 24.675781 42.035156 27.238281 42.035156 30.777344 Z M 31.800781 15.078125 L 26.242188 15.078125 L 26.242188 23.019531 L 30.921875 23.019531 C 34.539062 23.019531 36.535156 21.542969 36.535156 18.910156 C 36.535156 16.441406 34.820312 15.078125 31.800781 15.078125 Z M 26.242188 26.171875 L 26.242188 34.921875 L 32.003906 34.921875 C 35.769531 34.921875 37.765625 33.394531 37.765625 30.519531 C 37.765625 27.644531 35.714844 26.167969 31.761719 26.167969 L 26.242188 26.167969 Z M 26.242188 26.171875 "/>
</g>
</svg>
