<?xml version="1.0" encoding="UTF-8"?>
<svg xmlns="http://www.w3.org/2000/svg" xmlns:xlink="http://www.w3.org/1999/xlink" width="px" height="50px" viewBox="0 0 44 49" version="1.1">
<g id="surface1">
<path style=" stroke:none;fill-rule:nonzero;fill:rgb(0%,34.901961%,61.176471%);fill-opacity:1;" d="M 43.441406 36.789062 C 43.785156 36.195312 44 35.527344 44 34.929688 L 44 14.121094 C 44 13.523438 43.785156 12.855469 43.441406 12.261719 L 22 24.523438 Z M 43.441406 36.789062 "/>
<path style=" stroke:none;fill-rule:nonzero;fill:rgb(0%,26.666667%,50.980392%);fill-opacity:1;" d="M 23.90625 48.601562 L 42.09375 38.195312 C 42.617188 37.898438 43.09375 37.378906 43.441406 36.789062 L 22 24.523438 L 0.558594 36.789062 C 0.90625 37.378906 1.382812 37.898438 1.90625 38.195312 L 20.09375 48.601562 C 21.140625 49.199219 22.859375 49.199219 23.90625 48.601562 Z M 23.90625 48.601562 "/>
<path style=" stroke:none;fill-rule:nonzero;fill:rgb(39.607843%,60.392157%,82.352941%);fill-opacity:1;" d="M 43.441406 12.261719 C 43.09375 11.667969 42.617188 11.152344 42.09375 10.851562 L 23.90625 0.449219 C 22.859375 -0.148438 21.140625 -0.148438 20.09375 0.449219 L 1.90625 10.851562 C 0.855469 11.453125 0 12.921875 0 14.121094 L 0 34.929688 C 0 35.527344 0.214844 36.195312 0.558594 36.789062 L 22 24.523438 Z M 43.441406 12.261719 "/>
<path style=" stroke:none;fill-rule:nonzero;fill:rgb(100%,100%,100%);fill-opacity:1;" d="M 22 39.054688 C 13.914062 39.054688 7.332031 32.535156 7.332031 24.523438 C 7.332031 16.511719 13.914062 9.996094 22 9.996094 C 27.21875 9.996094 32.085938 12.777344 34.703125 17.253906 L 28.355469 20.894531 C 27.042969 18.652344 24.609375 17.261719 22 17.261719 C 17.957031 17.261719 14.667969 20.519531 14.667969 24.523438 C 14.667969 28.53125 17.957031 31.789062 22 31.789062 C 24.609375 31.789062 27.042969 30.398438 28.355469 28.15625 L 34.703125 31.792969 C 32.085938 36.273438 27.21875 39.054688 22 39.054688 Z M 22 39.054688 "/>
<path style=" stroke:none;fill-rule:nonzero;fill:rgb(100%,100%,100%);fill-opacity:1;" d="M 36.667969 23.71875 L 35.035156 23.71875 L 35.035156 22.101562 L 33.40625 22.101562 L 33.40625 23.71875 L 31.777344 23.71875 L 31.777344 25.332031 L 33.40625 25.332031 L 33.40625 26.945312 L 35.035156 26.945312 L 35.035156 25.332031 L 36.667969 25.332031 Z M 36.667969 23.71875 "/>
<path style=" stroke:none;fill-rule:nonzero;fill:rgb(100%,100%,100%);fill-opacity:1;" d="M 42.777344 23.71875 L 41.148438 23.71875 L 41.148438 22.101562 L 39.519531 22.101562 L 39.519531 23.71875 L 37.890625 23.71875 L 37.890625 25.332031 L 39.519531 25.332031 L 39.519531 26.945312 L 41.148438 26.945312 L 41.148438 25.332031 L 42.777344 25.332031 Z M 42.777344 23.71875 "/>
</g>
</svg>
