<?xml version="1.0" encoding="UTF-8"?>
<svg xmlns="http://www.w3.org/2000/svg" xmlns:xlink="http://www.w3.org/1999/xlink" width="px" height="50px" viewBox="0 0 44 49" version="1.1">
<g id="surface1">
<path style=" stroke:none;fill-rule:nonzero;fill:rgb(63.137255%,47.45098%,86.27451%);fill-opacity:1;" d="M 43.804688 14.503906 C 43.804688 13.691406 43.628906 12.96875 43.269531 12.351562 C 42.921875 11.742188 42.398438 11.230469 41.695312 10.828125 C 35.886719 7.515625 30.074219 4.210938 24.269531 0.894531 C 22.707031 0 21.1875 0.03125 19.636719 0.941406 C 17.324219 2.289062 5.753906 8.851562 2.308594 10.828125 C 0.886719 11.640625 0.195312 12.886719 0.195312 14.503906 C 0.191406 21.167969 0.195312 27.832031 0.191406 34.496094 C 0.191406 35.292969 0.363281 36 0.703125 36.609375 C 1.054688 37.238281 1.585938 37.761719 2.304688 38.171875 C 5.753906 40.148438 17.324219 46.710938 19.636719 48.058594 C 21.1875 48.96875 22.707031 49 24.273438 48.105469 C 30.078125 44.789062 35.886719 41.484375 41.695312 38.171875 C 42.414062 37.757812 42.945312 37.234375 43.296875 36.609375 C 43.636719 36 43.808594 35.292969 43.808594 34.492188 C 43.808594 34.492188 43.808594 21.167969 43.804688 14.503906 "/>
<path style=" stroke:none;fill-rule:nonzero;fill:rgb(15.686275%,0%,40.784314%);fill-opacity:1;" d="M 22.066406 24.433594 L 0.703125 36.609375 C 1.054688 37.238281 1.585938 37.761719 2.304688 38.171875 C 5.753906 40.148438 17.324219 46.710938 19.636719 48.058594 C 21.1875 48.96875 22.707031 49 24.273438 48.105469 C 30.078125 44.789062 35.886719 41.484375 41.695312 38.171875 C 42.414062 37.757812 42.945312 37.234375 43.296875 36.609375 Z M 22.066406 24.433594 "/>
<path style=" stroke:none;fill-rule:nonzero;fill:rgb(22.352941%,0%,56.862745%);fill-opacity:1;" d="M 43.804688 14.503906 C 43.804688 13.691406 43.628906 12.96875 43.269531 12.351562 L 22.066406 24.433594 L 43.296875 36.609375 C 43.636719 36 43.804688 35.292969 43.808594 34.492188 C 43.808594 34.492188 43.808594 21.167969 43.804688 14.503906 "/>
<path style=" stroke:none;fill-rule:nonzero;fill:rgb(100%,100%,100%);fill-opacity:1;" d="M 34.644531 19.882812 L 34.644531 22.160156 L 36.945312 22.160156 L 36.945312 19.882812 L 38.09375 19.882812 L 38.09375 22.160156 L 40.394531 22.160156 L 40.394531 23.296875 L 38.09375 23.296875 L 38.09375 25.574219 L 40.394531 25.574219 L 40.394531 26.710938 L 38.09375 26.710938 L 38.09375 28.988281 L 36.945312 28.988281 L 36.945312 26.710938 L 34.644531 26.710938 L 34.644531 28.988281 L 33.496094 28.988281 L 33.496094 26.710938 L 31.195312 26.710938 L 31.195312 25.574219 L 33.496094 25.574219 L 33.496094 23.296875 L 31.195312 23.296875 L 31.195312 22.160156 L 33.496094 22.160156 L 33.496094 19.882812 Z M 36.945312 23.296875 L 34.644531 23.296875 L 34.644531 25.574219 L 36.945312 25.574219 Z M 36.945312 23.296875 "/>
<path style=" stroke:none;fill-rule:nonzero;fill:rgb(100%,100%,100%);fill-opacity:1;" d="M 22.113281 8.453125 C 28.109375 8.453125 33.347656 11.679688 36.152344 16.46875 L 36.125 16.421875 L 29.066406 20.445312 C 27.675781 18.113281 25.128906 16.542969 22.207031 16.511719 L 22.113281 16.511719 C 17.65625 16.511719 14.042969 20.085938 14.042969 24.5 C 14.039062 25.890625 14.40625 27.257812 15.105469 28.464844 C 16.496094 30.867188 19.113281 32.488281 22.113281 32.488281 C 25.132812 32.488281 27.761719 30.847656 29.148438 28.417969 L 29.113281 28.476562 L 36.160156 32.515625 C 33.386719 37.265625 28.222656 40.480469 22.292969 40.542969 L 22.113281 40.546875 C 16.097656 40.546875 10.847656 37.300781 8.050781 32.484375 C 6.683594 30.132812 5.902344 27.40625 5.902344 24.5 C 5.902344 15.636719 13.160156 8.453125 22.113281 8.453125 Z M 22.113281 8.453125 "/>
</g>
</svg>
