<?xml version="1.0" encoding="UTF-8"?>
<svg xmlns="http://www.w3.org/2000/svg" xmlns:xlink="http://www.w3.org/1999/xlink" width="px" height="50px" viewBox="0 0 44 50" version="1.1">
<g id="surface1">
<path style=" stroke:none;fill-rule:nonzero;fill:rgb(10.588235%,45.098039%,72.941176%);fill-opacity:1;" d="M 3.683594 44.761719 L 0 0.0820312 L 44 0.171875 L 40.105469 44.761719 L 22.167969 49.917969 Z M 3.683594 44.761719 "/>
<path style=" stroke:none;fill-rule:nonzero;fill:rgb(10.980392%,53.333333%,78.039216%);fill-opacity:1;" d="M 22.167969 45.601562 L 22.167969 4.339844 L 40.285156 4.398438 L 37.054688 41.316406 Z M 22.167969 45.601562 "/>
<path style=" stroke:none;fill-rule:nonzero;fill:rgb(100%,100%,100%);fill-opacity:1;" d="M 35.785156 9.613281 L 7.914062 9.613281 L 8.667969 15.007812 L 21.894531 15.007812 L 8.878906 20.550781 L 9.632812 25.765625 L 28.808594 25.765625 L 28.117188 33.046875 L 21.621094 34.304688 L 15.734375 32.804688 L 15.28125 28.671875 L 9.875 28.671875 L 10.601562 37.269531 L 22.195312 40.476562 L 33.308594 36.972656 L 34.730469 20.160156 L 22.980469 20.160156 L 35.785156 14.886719 Z M 35.785156 9.613281 "/>
</g>
</svg>
