<?xml version="1.0" encoding="UTF-8"?>
<svg xmlns="http://www.w3.org/2000/svg" xmlns:xlink="http://www.w3.org/1999/xlink" width="px" height="50px" viewBox="0 0 50 50" version="1.1">
<g id="surface1">
<path style=" stroke:none;fill-rule:nonzero;fill:rgb(34.901961%,58.823529%,21.176471%);fill-opacity:1;" d="M 24.84375 0.136719 L 26.179688 2.640625 C 26.476562 3.105469 26.804688 3.515625 27.1875 3.894531 C 28.304688 5.011719 29.363281 6.183594 30.316406 7.4375 C 32.578125 10.40625 34.101562 13.703125 35.191406 17.265625 C 35.84375 19.445312 36.199219 21.679688 36.226562 23.9375 C 36.335938 30.695312 34.019531 36.492188 29.351562 41.3125 C 28.589844 42.078125 27.773438 42.78125 26.898438 43.410156 C 26.4375 43.410156 26.21875 43.054688 26.027344 42.730469 C 25.671875 42.132812 25.453125 41.449219 25.34375 40.769531 C 25.179688 39.953125 25.074219 39.132812 25.125 38.289062 L 25.125 37.910156 C 25.089844 37.828125 24.679688 0.328125 24.84375 0.136719 Z M 24.84375 0.136719 "/>
<path style=" stroke:none;fill-rule:nonzero;fill:rgb(42.352941%,67.45098%,28.235294%);fill-opacity:1;" d="M 24.84375 0.0546875 C 24.789062 -0.0546875 24.734375 0.0273438 24.679688 0.078125 C 24.707031 0.625 24.515625 1.113281 24.21875 1.578125 C 23.890625 2.042969 23.453125 2.398438 23.019531 2.777344 C 20.597656 4.875 18.691406 7.40625 17.164062 10.242188 C 15.132812 14.054688 14.085938 18.140625 13.789062 22.441406 C 13.652344 23.992188 14.28125 29.46875 14.769531 31.046875 C 16.101562 35.242188 18.5 38.753906 21.605469 41.804688 C 22.367188 42.539062 23.183594 43.21875 24.027344 43.875 C 24.273438 43.875 24.296875 43.65625 24.355469 43.492188 C 24.460938 43.144531 24.542969 42.789062 24.601562 42.429688 L 25.148438 38.347656 Z M 24.84375 0.0546875 "/>
<path style=" stroke:none;fill-rule:nonzero;fill:rgb(76.078431%,74.901961%,74.901961%);fill-opacity:1;" d="M 26.179688 45.070312 C 26.234375 44.445312 26.53125 43.925781 26.859375 43.410156 C 26.53125 43.273438 26.289062 43.003906 26.097656 42.703125 C 25.933594 42.429688 25.796875 42.101562 25.691406 41.804688 C 25.308594 40.660156 25.226562 39.460938 25.117188 38.289062 L 25.117188 37.582031 C 24.984375 37.691406 24.953125 38.617188 24.953125 38.753906 C 24.875 39.988281 24.710938 41.21875 24.464844 42.429688 C 24.382812 42.921875 24.328125 43.410156 24.027344 43.847656 C 24.027344 43.902344 24.027344 43.957031 24.054688 44.039062 C 24.542969 45.480469 24.679688 46.953125 24.761719 48.449219 L 24.761719 48.996094 C 24.761719 49.648438 24.734375 49.511719 25.277344 49.730469 C 25.496094 49.8125 25.738281 49.839844 25.957031 50.003906 C 26.121094 50.003906 26.148438 49.867188 26.148438 49.757812 L 26.066406 48.859375 L 26.066406 46.351562 C 26.039062 45.914062 26.121094 45.480469 26.175781 45.070312 Z M 26.179688 45.070312 "/>
</g>
</svg>
