<?xml version="1.0" encoding="UTF-8"?>
<svg xmlns="http://www.w3.org/2000/svg" xmlns:xlink="http://www.w3.org/1999/xlink" width="px" height="50px" viewBox="0 0 46 50" version="1.1">
<defs>
<linearGradient id="linear0" gradientUnits="userSpaceOnUse" x1="26.648937" y1="20.603781" x2="135.66525" y2="114.39767" gradientTransform="matrix(0.225016,0,0,0.225386,-5.996448,-4.643798)">
<stop offset="0" style="stop-color:rgb(35.294118%,62.352941%,83.137255%);stop-opacity:1;"/>
<stop offset="1" style="stop-color:rgb(18.823529%,41.176471%,59.607843%);stop-opacity:1;"/>
</linearGradient>
<linearGradient id="linear1" gradientUnits="userSpaceOnUse" x1="150.96111" y1="192.35176" x2="112.03144" y2="137.27299" gradientTransform="matrix(0.225016,0,0,0.225386,-5.996448,-4.643798)">
<stop offset="0" style="stop-color:rgb(100%,83.137255%,23.137255%);stop-opacity:1;"/>
<stop offset="1" style="stop-color:rgb(100%,90.980392%,45.098039%);stop-opacity:1;"/>
</linearGradient>
<filter id="alpha" filterUnits="objectBoundingBox" x="0%" y="0%" width="100%" height="100%">
  <feColorMatrix type="matrix" in="SourceGraphic" values="0 0 0 0 1 0 0 0 0 1 0 0 0 0 1 0 0 0 1 0"/>
</filter>
<mask id="mask0">
  <g filter="url(#alpha)">
<rect x="0" y="0" width="46" height="50" style="fill:rgb(0%,0%,0%);fill-opacity:0.443137;stroke:none;"/>
  </g>
</mask>
<radialGradient id="radial0" gradientUnits="userSpaceOnUse" cx="61.518883" cy="132.28575" fx="61.518883" fy="132.28575" r="29.036913" gradientTransform="matrix(0.00000000699623,-0.095217,0.421867,0.000000150458,-33.48032,56.532544)">
<stop offset="0" style="stop-color:rgb(72.156863%,72.156863%,72.156863%);stop-opacity:0.498039;"/>
<stop offset="1" style="stop-color:rgb(49.803922%,49.803922%,49.803922%);stop-opacity:0;"/>
</radialGradient>
<clipPath id="clip1">
  <rect x="0" y="0" width="46" height="50"/>
</clipPath>
<g id="surface5" clip-path="url(#clip1)">
<path style=" stroke:none;fill-rule:nonzero;fill:url(#radial0);" d="M 36.699219 50.675781 C 36.699219 49.148438 30.265625 47.910156 22.328125 47.910156 C 14.390625 47.910156 7.953125 49.148438 7.953125 50.675781 C 7.953125 52.203125 14.390625 53.441406 22.328125 53.441406 C 30.265625 53.441406 36.699219 52.203125 36.699219 50.675781 Z M 36.699219 50.675781 "/>
</g>
</defs>
<g id="surface1">
<path style=" stroke:none;fill-rule:nonzero;fill:url(#linear0);" d="M 21.96875 0 C 20.132812 0.0078125 18.382812 0.164062 16.84375 0.433594 C 12.304688 1.230469 11.480469 2.894531 11.480469 5.964844 L 11.480469 10.019531 L 22.203125 10.019531 L 22.203125 11.371094 L 7.453125 11.371094 C 4.339844 11.371094 1.609375 13.230469 0.753906 16.765625 C -0.230469 20.820312 -0.273438 23.347656 0.753906 27.578125 C 1.515625 30.730469 3.339844 32.972656 6.453125 32.972656 L 10.140625 32.972656 L 10.140625 28.113281 C 10.140625 24.601562 13.207031 21.503906 16.84375 21.503906 L 27.554688 21.503906 C 30.535156 21.503906 32.917969 19.066406 32.917969 16.097656 L 32.917969 5.964844 C 32.917969 3.082031 30.464844 0.914062 27.554688 0.433594 C 25.710938 0.128906 23.800781 -0.0078125 21.96875 0 Z M 16.167969 3.261719 C 17.273438 3.261719 18.179688 4.175781 18.179688 5.296875 C 18.179688 6.414062 17.273438 7.316406 16.167969 7.316406 C 15.054688 7.316406 14.15625 6.414062 14.15625 5.296875 C 14.15625 4.175781 15.054688 3.261719 16.167969 3.261719 Z M 16.167969 3.261719 "/>
<path style=" stroke:none;fill-rule:nonzero;fill:url(#linear1);" d="M 34.253906 11.371094 L 34.253906 16.097656 C 34.253906 19.757812 31.125 22.84375 27.554688 22.84375 L 16.84375 22.84375 C 13.90625 22.84375 11.480469 25.335938 11.480469 28.25 L 11.480469 38.378906 C 11.480469 41.265625 14.007812 42.960938 16.84375 43.789062 C 20.238281 44.777344 23.492188 44.957031 27.554688 43.789062 C 30.253906 43.011719 32.917969 41.453125 32.917969 38.378906 L 32.917969 34.324219 L 22.203125 34.324219 L 22.203125 32.972656 L 38.28125 32.972656 C 41.398438 32.972656 42.558594 30.816406 43.640625 27.578125 C 44.761719 24.246094 44.714844 21.042969 43.640625 16.765625 C 42.871094 13.6875 41.402344 11.371094 38.28125 11.371094 Z M 28.230469 37.027344 C 29.34375 37.027344 30.242188 37.933594 30.242188 39.050781 C 30.242188 40.171875 29.34375 41.085938 28.230469 41.085938 C 27.121094 41.085938 26.21875 40.171875 26.21875 39.050781 C 26.21875 37.933594 27.121094 37.027344 28.230469 37.027344 Z M 28.230469 37.027344 "/>
<use xlink:href="#surface5" mask="url(#mask0)"/>
</g>
</svg>
