<?xml version="1.0" encoding="UTF-8"?>
<svg xmlns="http://www.w3.org/2000/svg" xmlns:xlink="http://www.w3.org/1999/xlink" width="px" height="50px" viewBox="0 0 44 50" version="1.1">
<g id="surface1">
<path style=" stroke:none;fill-rule:nonzero;fill:rgb(38.039216%,85.490196%,98.431373%);fill-opacity:1;" d="M 44 25.003906 C 44 22.097656 40.351562 19.34375 34.753906 17.632812 C 36.042969 11.945312 35.472656 7.421875 32.941406 5.972656 C 32.359375 5.632812 31.675781 5.46875 30.933594 5.46875 L 30.933594 7.464844 C 31.34375 7.464844 31.675781 7.546875 31.957031 7.699219 C 33.175781 8.394531 33.703125 11.050781 33.292969 14.46875 C 33.191406 15.308594 33.03125 16.195312 32.835938 17.097656 C 31.078125 16.667969 29.15625 16.335938 27.140625 16.121094 C 25.929688 14.46875 24.671875 12.964844 23.40625 11.652344 C 26.332031 8.941406 29.078125 7.457031 30.941406 7.457031 L 30.941406 5.460938 C 28.476562 5.460938 25.246094 7.214844 21.980469 10.253906 C 18.71875 7.234375 15.488281 5.496094 13.023438 5.496094 L 13.023438 7.492188 C 14.878906 7.492188 17.632812 8.96875 20.554688 11.660156 C 19.300781 12.972656 18.042969 14.46875 16.851562 16.121094 C 14.824219 16.335938 12.90625 16.667969 11.148438 17.105469 C 10.941406 16.210938 10.789062 15.34375 10.679688 14.511719 C 10.261719 11.097656 10.78125 8.441406 11.992188 7.734375 C 12.261719 7.574219 12.609375 7.5 13.023438 7.5 L 13.023438 5.507812 C 12.269531 5.507812 11.585938 5.667969 10.996094 6.007812 C 8.476562 7.457031 7.910156 11.972656 9.210938 17.644531 C 3.632812 19.359375 0 22.105469 0 25.003906 C 0 27.910156 3.648438 30.667969 9.246094 32.375 C 7.957031 38.0625 8.527344 42.589844 11.058594 44.039062 C 11.640625 44.378906 12.324219 44.539062 13.078125 44.539062 C 15.542969 44.539062 18.769531 42.785156 22.035156 39.746094 C 25.300781 42.765625 28.527344 44.503906 30.996094 44.503906 C 31.75 44.503906 32.429688 44.339844 33.023438 44 C 35.542969 42.554688 36.109375 38.035156 34.808594 32.367188 C 40.367188 30.65625 44 27.902344 44 25.003906 Z M 32.324219 19.039062 C 31.992188 20.191406 31.578125 21.382812 31.113281 22.570312 C 30.746094 21.855469 30.359375 21.140625 29.9375 20.425781 C 29.523438 19.710938 29.085938 19.011719 28.644531 18.332031 C 29.917969 18.519531 31.148438 18.753906 32.324219 19.039062 Z M 28.214844 28.5625 C 27.515625 29.773438 26.796875 30.917969 26.054688 31.980469 C 24.71875 32.097656 23.363281 32.160156 22 32.160156 C 20.644531 32.160156 19.292969 32.097656 17.964844 31.988281 C 17.21875 30.925781 16.492188 29.789062 15.792969 28.589844 C 15.113281 27.417969 14.492188 26.230469 13.929688 25.03125 C 14.484375 23.832031 15.113281 22.632812 15.785156 21.460938 C 16.484375 20.253906 17.203125 19.109375 17.945312 18.046875 C 19.28125 17.929688 20.636719 17.867188 22 17.867188 C 23.355469 17.867188 24.707031 17.929688 26.035156 18.035156 C 26.78125 19.101562 27.507812 20.238281 28.207031 21.4375 C 28.886719 22.609375 29.507812 23.796875 30.070312 24.996094 C 29.507812 26.195312 28.886719 27.390625 28.214844 28.5625 Z M 31.113281 27.402344 C 31.597656 28.601562 32.007812 29.796875 32.351562 30.960938 C 31.175781 31.246094 29.9375 31.488281 28.65625 31.675781 C 29.09375 30.988281 29.535156 30.28125 29.945312 29.558594 C 30.359375 28.839844 30.746094 28.117188 31.113281 27.402344 Z M 22.019531 36.945312 C 21.183594 36.085938 20.351562 35.128906 19.523438 34.082031 C 20.332031 34.117188 21.15625 34.144531 21.992188 34.144531 C 22.835938 34.144531 23.667969 34.128906 24.484375 34.082031 C 23.675781 35.128906 22.84375 36.085938 22.019531 36.945312 Z M 15.34375 31.675781 C 14.070312 31.488281 12.84375 31.257812 11.667969 30.96875 C 12 29.816406 12.414062 28.625 12.878906 27.4375 C 13.246094 28.152344 13.632812 28.867188 14.054688 29.582031 C 14.476562 30.300781 14.90625 30.996094 15.34375 31.675781 Z M 21.972656 13.0625 C 22.808594 13.921875 23.640625 14.878906 24.464844 15.925781 C 23.660156 15.890625 22.835938 15.863281 22 15.863281 C 21.15625 15.863281 20.324219 15.882812 19.507812 15.925781 C 20.3125 14.878906 21.148438 13.921875 21.972656 13.0625 Z M 15.335938 18.332031 C 14.898438 19.019531 14.457031 19.726562 14.042969 20.453125 C 13.632812 21.167969 13.246094 21.882812 12.878906 22.597656 C 12.394531 21.398438 11.980469 20.203125 11.640625 19.039062 C 12.816406 18.761719 14.054688 18.519531 15.335938 18.332031 Z M 7.21875 29.53125 C 4.042969 28.179688 1.992188 26.410156 1.992188 25.003906 C 1.992188 23.601562 4.042969 21.820312 7.21875 20.480469 C 7.992188 20.148438 8.835938 19.851562 9.703125 19.574219 C 10.214844 21.328125 10.886719 23.152344 11.722656 25.023438 C 10.898438 26.882812 10.234375 28.699219 9.730469 30.441406 C 8.84375 30.164062 8 29.859375 7.21875 29.53125 Z M 12.042969 42.3125 C 10.824219 41.613281 10.296875 38.957031 10.707031 35.539062 C 10.808594 34.699219 10.96875 33.816406 11.164062 32.910156 C 12.921875 33.339844 14.84375 33.671875 16.859375 33.886719 C 18.070312 35.539062 19.328125 37.042969 20.59375 38.359375 C 17.667969 41.066406 14.921875 42.554688 13.058594 42.554688 C 12.65625 42.542969 12.3125 42.464844 12.042969 42.3125 Z M 33.320312 35.496094 C 33.738281 38.914062 33.21875 41.570312 32.007812 42.277344 C 31.738281 42.4375 31.390625 42.507812 30.976562 42.507812 C 29.121094 42.507812 26.367188 41.03125 23.445312 38.339844 C 24.699219 37.027344 25.957031 35.53125 27.148438 33.878906 C 29.175781 33.664062 31.09375 33.332031 32.851562 32.894531 C 33.058594 33.796875 33.21875 34.664062 33.320312 35.496094 Z M 36.769531 29.53125 C 36 29.859375 35.15625 30.15625 34.285156 30.433594 C 33.777344 28.679688 33.101562 26.855469 32.269531 24.988281 C 33.09375 23.125 33.757812 21.308594 34.261719 19.566406 C 35.148438 19.84375 35.992188 20.148438 36.78125 20.480469 C 39.957031 21.828125 42.007812 23.601562 42.007812 25.003906 C 42 26.410156 39.945312 28.1875 36.769531 29.53125 Z M 36.769531 29.53125 "/>
<path style=" stroke:none;fill-rule:nonzero;fill:rgb(38.039216%,85.490196%,98.431373%);fill-opacity:1;" d="M 26.089844 25.003906 C 26.089844 27.261719 24.253906 29.09375 21.992188 29.09375 C 19.726562 29.09375 17.890625 27.261719 17.890625 25.003906 C 17.890625 22.746094 19.726562 20.917969 21.992188 20.917969 C 24.253906 20.917969 26.089844 22.746094 26.089844 25.003906 Z M 26.089844 25.003906 "/>
</g>
</svg>
